<?xml version="1.0" encoding="utf-8" ?>
<svg baseProfile="full" height="300mm" version="1.1" viewBox="0,0,200,300" width="200mm" xmlns="http://www.w3.org/2000/svg" xmlns:ev="http://www.w3.org/2001/xml-events" xmlns:xlink="http://www.w3.org/1999/xlink"><defs /><rect fill="#222222" height="300" width="200" x="0" y="0" /><text fill="#FFFFFF" style="font-size:12px; font-family:Arial; font-weight:bold;" x="10" y="20">Over 10km</text><text fill="#FFFFFF" style="font-size:4px; font-family:Arial" x="10" y="280">ATHLETE</text><text fill="#FFFFFF" style="font-size:9px; font-family:Arial" x="10" y="290">Ricky</text><text fill="#FFFFFF" style="font-size:4px; font-family:Arial" x="120" y="280">STATISTICS</text><text fill="#FFFFFF" style="font-size:3px; font-family:Arial" x="120" y="285">Number: 1</text><text fill="#FFFFFF" style="font-size:3px; font-family:Arial" x="120" y="290">Weekly: 1.0</text><text fill="#FFFFFF" style="font-size:3px; font-family:Arial" x="141" y="285">Total: 12.6 km</text><text fill="#FFFFFF" style="font-size:3px; font-family:Arial" x="141" y="290">Avg: 12.6 km</text><text fill="#FFFFFF" style="font-size:3px; font-family:Arial" x="167" y="285">Min: 12.6 km</text><text fill="#FFFFFF" style="font-size:3px; font-family:Arial" x="167" y="290">Max: 12.6 km</text><polyline fill="none" points="90.76747720339336,112.27617421292234 89.61854103324004,112.18548572598957 89.33130699046887,112.86564901511883 86.95136778079905,114.72475773317274 84.03799392096698,116.3571407176787 82.35562310018577,116.90126730740303 78.90881458926015,119.39517398673343 73.20516717294231,121.02754317206563 72.0151975681074,122.20647347322665 69.1018237080425,121.48097820102703 67.62462006066926,121.4356347147841 66.5167173249647,121.8890694087604 58.35106382938102,123.34005792887183 57.448328267317265,123.83883435261669 56.75075987819582,124.88172905618558 54.82218844955787,125.24447457870701 54.04255319130607,126.42339588201139 54.12462006066926,127.82902953302255 53.7963525832165,128.8719167051604 54.94528875336982,130.3682296446059 54.98632218828425,131.04837055021198 54.20668693003245,132.49933501746273 53.22188449813984,133.63289835635806 53.83738601813093,134.5850897639175 53.67325227940455,135.4465948617435 54.24772036448121,136.3534408819978 54.20668693003245,137.21494322275976 54.61702127638273,137.57768064859556 54.24772036448121,138.80191770289093 53.509118540911004,139.84478416549973 52.93465045560151,140.1168359623989 52.64741641306318,141.06901619693963 51.7446808507666,141.9305111860158 51.66261398163624,144.42430489894468 50.67781154997647,145.82989275979344 50.924012157833204,146.46467320248485 50.51367781148292,146.41933176654857 50.10334346489981,146.9180873579462 47.72340425499715,147.1901356727467 43.86626139795408,148.82242274883902 43.12765957415104,149.457199754077 41.650455926777795,149.0944701260305 38.696048631798476,149.72924681886798 36.89057750720531,148.82242274883902 35.08510638261214,148.50503397273133 34.05927051627077,148.82242274883902 33.27963525801897,148.64105775614735 32.21276595722884,149.27583496982697 32.00759878382087,149.1398113425821 31.433130698744208,149.72924681886798 30.57142857136205,149.86527030088473 29.9148936169222,150.59072830714285 29.750759878195822,151.54289049498038 30.037993920734152,152.22300533897942 30.57142857136205,152.40436915605096 30.735562309622765,152.90311934589408 29.750759878195822,152.94846024998697 29.504559270339087,153.4018690859666 29.176291793119162,154.08198164217174 28.930091185262427,155.4875449395622 28.47872340399772,155.66890768532176 28.39665653463453,156.43969869066495 26.878419452579692,158.4346821832005 26.262917932821438,161.01908190973336 24.047112461877987,164.51026936870767 24.17021276568994,165.41706769820303 23.718844984425232,167.3213393475744 21.831306990701705,169.27094400132773 21.0927051671315,173.53284650563728 20.231003039283678,176.88793812558288 19.328267476987094,179.29089663480408 19.082066869130358,181.14978190045804 19.369300911668688,181.19512048742035 19.410334346117452,181.3764747979585 19.164133738260716,181.14978190045804 19.2872340423055,181.46715193078853 19.164133738260716,181.24045907059917 19.0,181.42181336623617 19.98480243119411,181.19512048742035 20.846504559041932,181.60316760238493 21.8723404253833,181.51249049173202 22.24164133728482,182.14722995372722 22.775075987447053,182.05655293230666 23.02127659553662,182.64595330547309 23.267477203393355,182.2832454579766 24.047112461877987,182.5552763660089 24.129179331008345,182.101891444996 24.539513677591458,181.64850615221076 25.072948327986524,181.78452177898725 24.990881458856165,181.96587589621777 25.113981762668118,181.69384469813667 25.770516717107967,181.82986031385371 26.016717324964702,181.64850615221076 26.016717324964702,182.05655293230666 26.38601823686622,181.87519884493668 26.016717324964702,181.7391832403955 26.262917932821438,182.14722995372722 27.288753799162805,182.5552763660089 27.083586625987664,182.7366302301525 27.001519756624475,182.41926092869835 27.124620060436428,182.64595330547309 27.288753799162805,182.37392244208604 27.658054711064324,182.5552763660089 28.027355622965842,183.0539993494749 28.355623099952936,182.5552763660089 28.027355622965842,182.50993789057247 28.519756838679314,182.41926092869835 28.724924011854455,182.5552763660089 28.10942249232903,182.32858395186486 28.273556230589747,181.96587589621777 28.76595744653605,181.92053737241076 28.437689969316125,181.78452177898725 29.012158054392785,181.92053737241076 29.586626139469445,181.51249049173202 29.996960486052558,181.7391832403955 30.77659574453719,181.42181336623617 31.26899696025066,181.7391832403955 31.884498480008915,181.3764747979585 32.49999999976717,181.82986031385371 33.07446808484383,181.64850615221076 33.27963525801897,182.01121441618307 34.182370820548385,181.7391832403955 36.562310030218214,182.41926092869835 37.50607902719639,181.69384469813667 38.28571428544819,181.64850615221076 38.94224923988804,180.96842751570512 40.132218844722956,180.56037993199425 41.158054711064324,179.6536064458778 41.445288753602654,179.5629290153738 41.568389057414606,179.92563864780823 42.594224923755974,179.69894515554188 43.49696048605256,180.46970265044365 43.661094224778935,180.33368669991614 43.4148936169222,180.33368669991614 43.579027355182916,180.56037993199425 43.661094224778935,180.33368669991614 43.74316109390929,180.42436400410952 43.53799392073415,180.56037993199425 43.78419452859089,180.42436400410952 43.78419452859089,180.96842751570512 44.39969604834914,181.10444330982864 44.194528875174,181.42181336623617 44.35866261366755,181.24045907059917 44.89209726406261,181.78452177898725 45.13829787215218,181.51249049173202 45.30243161087856,182.2832454579766 46.08206686913036,182.41926092869835 47.35410334309563,181.7391832403955 47.55927051627077,182.2832454579766 48.46200607880019,182.60061483760364 48.74924012133852,183.14467620721553 49.36474164109677,183.0539993494749 49.15957446792163,183.4620450923685 50.02127659530379,184.0061056141276 49.775075987679884,184.05144396680407 50.10334346489981,184.55016560049262 50.636778115294874,184.86753367859637 50.59574468061328,185.2302398303873 50.96504559228197,185.32091633119853 50.924012157833204,185.77429861208657 51.416413373546675,185.86497502360726 51.25227963505313,186.1370041689952 51.82674772012979,186.27301869128132 51.90881458949298,186.59038578043692 52.565349543932825,186.95309080195148 52.72948328242637,186.54504763602745 53.09878419432789,186.95309080195148 54.08358662575483,186.6357239210629 54.001519756624475,187.0891051235376 54.3297872338444,187.0437670200481 54.493920972337946,187.1797813193407 54.45288753765635,187.27045750047546 54.74012158019468,187.1797813193407 54.863221884239465,187.76917622995097 55.19148936145939,187.72383818228263 54.863221884239465,187.54248595418176 55.31458966527134,187.4064717440633 54.98632218828425,187.54248595418176 55.35562310018577,187.54248595418176 55.27355623082258,187.76917622995097 54.98632218828425,187.54248595418176 55.437689969316125,187.81451427406864 55.39665653463453,187.27045750047546 55.068389057414606,187.3157955853385 55.437689969316125,187.27045750047546 55.19148936145939,187.1344432233018 55.47872340399772,187.0891051235376 55.35562310018577,187.0437670200481 55.806990881217644,186.7717383209383 55.68389057717286,186.6357239210629 56.21732522780076,186.59038578043692 55.889057750348,186.36369502119487 56.17629179311916,186.00098961300682 56.094224923755974,186.31835685810074 56.54559270478785,185.91031322372146 56.873860182240605,186.09166598739102 56.66869300883263,185.50226928817574 57.07902735541575,185.50226928817574 57.48936170176603,184.95821023883764 58.022796352393925,185.50226928817574 58.392097264295444,185.36625457607443 58.35106382938102,185.63828396680765 58.35106382938102,185.4115928171086 59.13069908786565,185.50226928817574 59.828267477219924,186.00098961300682 62.905775075778365,186.1370041689952 64.4240121578332,185.45693105459213 64.58814589632675,185.09422505140537 65.36778115481138,184.86753367859637 66.80395136750303,185.18490157445194 68.6094224920962,185.1395633147913 69.51215805462562,184.2327973402571 69.71732522780076,184.36881233128952 69.55319148907438,183.87009053386282 70.90729483263567,182.23790696042124 71.31762917921878,180.28834804240614 70.57902735541575,178.6108150978689 70.94832826731727,177.38666622241726 70.16869300883263,176.34387059765868 70.08662613970228,175.16505578329088 70.66109422477894,174.93836033862317 71.89209726429544,175.21039486123482 72.83586626104079,174.6663256821921 74.31306990864687,174.7116648008232 74.8875379934907,174.16759513079887 74.8875379934907,173.17013267823495 75.70820668665692,172.80741861276329 75.62613981729373,172.535382907663 76.28267477173358,172.62606149091152 75.8313069907017,172.1726684255409 76.20060790260322,171.94597175350646 76.1185410330072,171.71927498845616 76.6109422489535,171.8099537055823 76.85714285681024,172.0366504335543 77.9650455925148,171.17520237294957 76.93920972617343,170.3137529696687 76.89817629149184,170.49511085049016 76.81610942236148,170.35909244552022 77.30851063807495,168.99890655546915 77.06231002998538,168.8175481838407 77.47264437680133,168.77220858173678 75.79027355602011,167.18532016180689 76.24164133705199,166.9132816894562 77.51367781125009,164.32890952425078 78.49848024290986,163.42210940941004 78.62158054695465,162.78734844381688 78.62158054695465,163.10472901776666 78.7857142854482,162.92336871201405 78.703647416085,162.74200834694784 78.703647416085,162.96870879415656 78.41641337354667,162.4699676875607 78.66261398163624,162.92336871201405 76.98024316085503,160.792380662926 77.02127659553662,157.4371913371142 75.79027355602011,156.75708290975308 74.06686930079013,156.39435807307018 73.65653495397419,155.94095169228967 74.18996960460208,153.67391420895 75.46200607880019,151.40686742565595 75.8723404253833,149.36651736940257 77.10334346489981,148.27832759241574 77.9650455925148,148.05162111920072 77.80091185378842,146.51001463481225 76.15957446792163,144.4696464985609 77.06231002998538,142.0665365877794 76.93920972617343,141.20504181087017 80.05775075987913,138.71123356971657 81.90425531892106,136.2174140739371 82.43768996954896,136.1267295163707 83.99696048605256,134.8571441504755 92.08054711227305,125.96996490925085 94.58358662598766,125.19913140143035 96.22492401185445,125.06310184730683 100.53343465016223,125.47119040932739 102.79027355602011,124.88172905618558 105.12917933100834,125.47119040932739 105.82674772012979,124.11089403030928 106.03191489330493,124.65501298382878 107.42705167154782,125.06310184730683 109.27355623082258,126.55942510126624 110.01215805439278,127.874372494407 109.68389057717286,127.91971545206616 110.70972644374706,129.55205945274793 110.17629179311916,129.96014469931833 110.66869300883263,130.4135723976069 110.87386018200777,129.82411631732248 114.19756838888861,130.14151582337217 114.56686930079013,130.50425789278233 115.42857142817229,130.64028610719834 115.879939209437,131.09371324745007 115.8389057747554,131.36576935299672 117.60334346489981,132.0005664115888 118.62917933100834,131.9552237887401 119.08054711227305,131.63782532460755 119.49088145862333,131.7285106186173 120.18844984774478,131.229741316929 121.13221884449013,131.45645469176816 121.09118541027419,132.7260478712269 120.76291793282144,133.49687087856 120.27051671710797,133.90495321172057 119.81914893607609,133.85961074510124 119.65501519734971,134.31303524359828 119.44984802417457,136.71617887326283 119.77811550116166,137.66836496785982 121.7887537991628,139.6180742321303 122.89665653463453,141.61311845161254 123.26595744653605,141.65846028190572 123.1018237080425,142.8826882955036 124.00455927033909,143.2000803006813 125.11246200581081,144.28828007745324 125.56382978707552,144.24293846299406 125.44072948303074,145.24045312439557 125.85106382961385,145.7845512717613 126.83586626104079,146.19262453069678 127.65653495420702,147.46218385355314 127.77963525801897,148.50503397273133 128.23100303928368,148.45969270408386 128.84650455904193,149.0944701260305 130.1595744676888,147.77957322855946 131.0623100302182,147.41684249934042 133.89361702091992,147.73423190036556 135.90425531892106,148.64105775614735 137.17629179288633,150.90811588533688 137.54559270478785,154.17266325309174 138.7765957445372,155.57822631974705 138.7765957445372,155.26084142364562 138.6534954404924,155.57822631974705 139.26899696001783,156.39435807307018 139.80243161064573,155.44220424391096 139.59726443747059,154.39936721528647 139.84346504556015,150.59072830714285 140.3358662610408,149.00378768175142 140.2948328263592,147.1901356727467 141.85410334332846,146.14728307235055 142.6337386018131,146.51001463481225 142.0592705165036,148.23298630531644 142.18237082054839,149.91061145428102 141.6489361699205,152.3590282073128 141.93617021245882,153.31118734850315 142.7978723400738,153.7645958867506 143.82370820641518,153.49255080835428 145.79331306973472,153.85527754970826 145.30091185402125,151.9509595017298 145.4240121578332,151.27084432303673 146.94224923988804,150.6360694009345 146.86018237052485,150.3640227825963 148.46048632194288,147.82491455291165 150.8404255316127,146.41933176654857 152.1124620058108,145.24045312439557 152.6869300911203,145.55784377548844 152.64589665620588,145.2857946571894 152.72796352556907,145.37647771136835 153.71276595722884,144.1522552225506 155.84650455904193,144.37896329554496 158.4726443765685,145.82989275979344 159.04711246164516,146.64603890938452 158.9650455925148,148.4143514317111 161.38601823686622,147.915597190673 162.04255319130607,148.05162111920072 162.53495440701954,147.41684249934042 163.84802431589924,147.46218385355314 164.62765957415104,146.82740455667954 167.29483282659203,147.50752520398237 168.11550151952542,146.82740455667954 168.40273556206375,145.60318528214702 169.34650455904193,145.14977004769025 167.91033434635028,145.2857946571894 167.3768996957224,144.4696464985609 166.5151975681074,142.29324551630998 162.74012158019468,140.88764865970006 162.8632218844723,140.29820375260897 166.18693009088747,141.43175109277945 166.84346504556015,141.15969994326588 169.0592705165036,141.74914393137442 169.9620060788002,141.61311845161254 170.53647416387685,140.61559724225663 171.84954407275654,140.57025532628177 172.547112461878,141.61311845161254 173.6550151973497,142.20256195601542 173.6550151973497,142.56529610790312 174.06534954393283,143.064055177907 174.5167173249647,142.83734656561865 174.76291793282144,141.15969994326588 174.4756838902831,140.07149400544586 176.24012158019468,140.1168359623989 176.52735562296584,139.6180742321303 177.18389057717286,139.30068016966106 177.26595744630322,139.79944218625315 176.89665653486736,140.07149400544586 177.67629179311916,142.79200483183376 178.20972644374706,145.55784377548844 178.45592705137096,148.23298630531644 178.16869300883263,152.81243752676528 178.90729483263567,154.71675260621123 178.62006079009734,155.62356700439705 178.20972644374706,155.8956110337749 178.90729483263567,156.75708290975308 179.2355623098556,156.48503930447623 178.7841945285909,157.11980750859948 178.90729483263567,156.84776408184553 178.08662613946944,155.71424836240476 178.57902735541575,155.44220424391096 178.7021276592277,154.9434563452378 178.29179331287742,155.07947854400845 178.57902735541575,154.85277486086125 178.62006079009734,155.53288563154638 178.29179331287742,155.71424836240476 178.00455927010626,154.98879708186723 178.4148936169222,155.21550070936792 178.29179331287742,155.57822631974705 178.57902735541575,155.53288563154638 178.6610942245461,154.9434563452378 181.0,153.1751647144556" stroke="#4DD2FF" stroke-linecap="round" stroke-linejoin="round" stroke-width="0.5"><title>2023-05-01 12.6km</title></polyline></svg>