<?xml version="1.0" encoding="utf-8" ?>
<svg baseProfile="full" height="300mm" version="1.1" viewBox="0,0,200,300" width="200mm" xmlns="http://www.w3.org/2000/svg" xmlns:ev="http://www.w3.org/2001/xml-events" xmlns:xlink="http://www.w3.org/1999/xlink"><defs /><rect fill="#222222" height="300" width="200" x="0" y="0" /><text fill="#FFFFFF" style="font-size:12px; font-family:Arial; font-weight:bold;" x="10" y="20">Activities</text><text fill="#FFFFFF" style="font-size:4px; font-family:Arial" x="10" y="280">ATHLETE</text><text fill="#FFFFFF" style="font-size:9px; font-family:Arial" x="10" y="290">Ricky</text><text fill="#FFFFFF" style="font-size:4px; font-family:Arial" x="120" y="280">STATISTICS</text><text fill="#FFFFFF" style="font-size:3px; font-family:Arial" x="120" y="285">Number: 2</text><text fill="#FFFFFF" style="font-size:3px; font-family:Arial" x="120" y="290">Weekly: 1.0</text><text fill="#FFFFFF" style="font-size:3px; font-family:Arial" x="141" y="285">Total: 17.3 km</text><text fill="#FFFFFF" style="font-size:3px; font-family:Arial" x="141" y="290">Avg: 8.6 km</text><text fill="#FFFFFF" style="font-size:3px; font-family:Arial" x="167" y="285">Min: 4.6 km</text><text fill="#FFFFFF" style="font-size:3px; font-family:Arial" x="167" y="290">Max: 12.6 km</text><polyline fill="none" points="93.84498480241746,64.850782808644 93.07902735564858,64.79032381734578 92.88753799383994,65.24376601006952 91.30091185402125,66.48317182215396 89.3586626140168,67.57142714512884 88.23708206682932,67.93417820497416 85.93920972628985,69.59678265778348 82.13677811541129,70.68502878135769 81.34346504556015,71.47098231548443 79.40121580543928,70.98731880067498 78.41641337389592,70.95708980984637 77.67781155009288,71.25937960582087 72.2340425531147,72.22670528592425 71.63221884495579,72.55922290176386 71.16717325232457,73.25448603747645 69.88145896641072,73.49631638580468 69.36170212761499,74.28226392134093 69.41641337389592,75.21935302199563 69.19756838900503,75.9146111367736 69.96352583577391,76.91215309637482 69.99088145897258,77.3655803668371 69.47112462006044,78.33289001166122 68.81458966562059,79.088598904229 69.2249240122037,79.7233931759547 69.11550151964184,80.2977299078193 69.49848024302628,80.90229392136098 69.47112462006044,81.47662881514407 69.74468085099943,81.71845376573037 69.49848024302628,82.53461180193699 69.00607902742922,83.22985611032345 68.62310030392837,83.4112239748938 68.43161094223615,84.04601079795975 67.82978723396081,84.6203407906869 67.7750759877963,86.28286993256188 67.11854103347287,87.21992850652896 67.28267477208283,87.64311546829413 67.00911854102742,87.6128878443269 66.73556231008843,87.94539157196414 65.14893617015332,88.12675711512566 62.57750759879127,89.21494849919691 62.08510638284497,89.63813316938467 61.10030395130161,89.39631341735367 59.13069908809848,89.81949787927442 57.92705167166423,89.21494849919691 56.72340425522998,89.00335598184029 56.03951367770787,89.21494849919691 55.519756838912144,89.09403850405943 54.808510638191365,89.51722331318888 54.67173252266366,89.42654089504504 54.28875379927922,89.81949787927442 53.714285714318976,89.91018020061892 53.276595744653605,90.39381887140917 53.167173252324574,91.02859366335906 53.35866261390038,91.48200355932931 53.714285714318976,91.60291277070064 53.82370820653159,91.93541289729183 53.167173252324574,91.96564016668708 53.00303951371461,92.26791272393893 52.784194528940134,92.72132109478116 52.62006079033017,93.65836329304148 52.31914893607609,93.7792717902339 52.264437689911574,94.2931324604433 51.25227963516954,95.6231214555155 50.841945288702846,97.3460546064598 49.3647416413296,99.67351291250088 49.44680851045996,100.27804513220326 49.14589665643871,101.5475595650787 47.88753799395636,102.84729600086575 47.39513677812647,105.68856433706242 46.820668692933396,107.92529208376072 46.21884498477448,109.52726442323183 46.054711246164516,110.76652126698173 46.246200607856736,110.79674699160387 46.27355623093899,110.91764986532507 46.10942249232903,110.76652126698173 46.191489361575805,110.97810128718265 46.10942249232903,110.82697271372308 46.0,110.94787557749078 46.65653495432343,110.79674699160387 47.23100303951651,111.06877840158995 47.9148936169222,111.00832699448802 48.16109422489535,111.43148663584725 48.51671732508112,111.37103528823354 48.68085106369108,111.76396887030569 48.84498480241746,111.52216363867046 49.3647416413296,111.70351757731987 49.41945288749412,111.40126096335007 49.69300911843311,111.09900410144473 50.04863221873529,111.1896811859624 49.99392097268719,111.31058393078274 50.07598784181755,111.12922979876748 50.51367781148292,111.21990687589278 50.67781155009288,111.09900410144473 50.67781155009288,111.37103528823354 50.924012158066034,111.25013256332022 50.67781155009288,111.1594554935873 50.841945288702846,111.43148663584725 51.52583586622495,111.70351757731987 51.38905775069725,111.82442015345441 51.33434650453273,111.61284061911283 51.416413373779505,111.76396887030569 51.52583586622495,111.5826149614004 51.77203647408169,111.70351757731987 52.01823708205484,112.0359995662875 52.2370820667129,111.70351757731987 52.01823708205484,111.67329192705802 52.34650455915835,111.61284061911283 52.48328267468605,111.70351757731987 52.07294832833577,111.55238930127234 52.182370820548385,111.31058393078274 52.51063829776831,111.28035824827384 52.29179331299383,111.1896811859624 52.67477203637827,111.28035824827384 53.05775075976271,111.00832699448802 53.33130699081812,111.1594554935873 53.851063829730265,110.94787557749078 54.179331307066604,111.1594554935873 54.58966565341689,110.91764986532507 55.0,111.21990687589278 55.382978723268025,111.09900410144473 55.519756838912144,111.3408096107596 56.12158054707106,111.1594554935873 57.70820668688975,111.61284061911283 58.337386018247344,111.12922979876748 58.85714285704307,111.09900410144473 59.29483282670844,110.6456183437549 60.088145896676,110.3735866213392 60.77203647408169,109.76907096392824 60.96352583589032,109.70861934361164 61.045592705137096,109.95042576524429 61.7294832826592,109.79929677030304 62.33130699081812,110.31313510029577 62.44072948326357,110.2224577999441 62.276595744653605,110.2224577999441 62.386018236982636,110.3735866213392 62.44072948326357,110.2224577999441 62.49544072942808,110.28290933603421 62.358662614016794,110.3735866213392 62.52279635251034,110.28290933603421 62.52279635251034,110.6456183437549 62.933130699093454,110.73629553991486 62.796352583449334,110.94787557749078 62.90577507589478,110.82697271372308 63.26139817619696,111.1896811859624 63.425531914806925,111.00832699448802 63.53495440736879,111.52216363867046 64.05471124616452,111.61284061911283 64.90273556218017,111.1594554935873 65.03951367770787,111.52216363867046 65.6413373859832,111.7337432250497 65.83282674767543,112.09645080482005 66.24316109414212,112.0359995662875 66.10638297873084,112.3080300615984 66.68085106369108,112.67073707611416 66.51671732531395,112.70096264447784 66.73556231008843,113.03344373367145 67.09118541027419,113.24502245240728 67.06382978719193,113.48682655362063 67.31003039504867,113.54727755411295 67.28267477208283,113.84953240805771 67.61094224906992,113.9099833490618 67.5015197568573,114.09133611267316 67.88449848024175,114.18201246089302 67.93920972640626,114.39359052028158 68.37689969607163,114.63539386799675 68.48632218851708,114.36336509062676 68.7325227962574,114.63539386799675 69.38905775069725,114.42381594737526 69.33434650453273,114.7260700823681 69.55319148930721,114.69584467998357 69.66261398163624,114.78652087957016 69.6352583586704,114.84697166696424 69.82674772036262,114.78652087957016 69.90881458960939,115.17945081996731 70.12765957438387,115.14922545486479 69.90881458960939,115.0283239693963 70.20972644374706,114.93764782935614 69.99088145897258,115.0283239693963 70.23708206682932,115.0283239693963 70.1823708206648,115.17945081996731 69.99088145897258,115.0283239693963 70.29179331299383,115.20967618268332 70.26443768979516,114.84697166696424 70.04559270502068,114.87719705686322 70.29179331299383,114.84697166696424 70.12765957438387,114.75629548219149 70.3191489361925,114.7260700823681 70.23708206682932,114.69584467998357 70.53799392096698,114.51449221392977 70.4559270516038,114.42381594737526 70.81155015190598,114.39359052028158 70.5927051671315,114.24246334744385 70.78419452894013,114.00065974195604 70.7294832826592,114.2122379053908 71.03039513668045,113.94020881582401 71.24924012157135,114.06111065822188 71.11246200604364,113.66817952544079 71.38601823698264,113.66817952544079 71.65957446803804,113.30547349259723 72.01519756834023,113.66817952544079 72.26139817631338,113.57750305070658 72.2340425531147,113.75885597785236 72.2340425531147,113.60772854476818 72.75379939202685,113.66817952544079 73.2188449848909,114.00065974195604 75.27051671722438,114.09133611267316 76.28267477208283,113.63795403638505 76.39209726429544,113.39615003424115 76.91185410320759,113.24502245240728 77.8693009117851,113.45660104963463 79.07294832821935,113.42637554323301 79.67477203649469,112.82186489348533 79.81155015190598,112.91254155419301 79.70212765946053,112.58006035588915 80.60486322187353,111.49193797359476 80.87841945292894,110.19223202826106 80.38601823709905,109.0738767318835 80.63221884495579,108.25777748163091 80.11246200604364,107.56258039845852 80.05775075987913,106.77670385554666 80.44072948326357,106.62557355911122 81.26139817631338,106.80692990747048 81.89057750743814,106.4442171214032 82.87537993921433,106.4744432005682 83.25835866248235,106.11173008719925 83.25835866248235,105.4467551188136 83.80547112459317,105.20494574180339 83.75075987831224,105.02358860505046 84.18844984797761,105.08404099394102 83.88753799395636,104.78177895038971 84.13373860192951,104.63064783567097 84.07902735553216,104.47951665896107 84.40729483275209,104.53996913702576 84.57142857136205,104.69110028902651 85.31003039504867,104.11680158195668 84.62613981764298,103.54250197979854 84.5987841944443,103.66340723368921 84.54407294827979,103.57272829700378 84.87234042549971,102.6659377036267 84.70820668688975,102.54503212255077 84.98176291794516,102.51480572111905 83.86018237075768,101.45688010787126 84.16109422477894,101.27552112628473 85.009118540911,99.55260634949082 85.66565349546727,98.9480729396164 85.74772036471404,98.52489896255429 85.74772036471404,98.73648601179593 85.85714285715949,98.6155791413621 85.80243161087856,98.49467223128886 85.80243161087856,98.64580586276134 85.61094224918634,98.31331179165863 85.77507598791271,98.6155791413621 84.65349544072524,97.19492044195067 84.6808510638075,94.95812755808583 83.86018237075768,94.50472193985479 82.71124620060436,94.26290538205649 82.43768996954896,93.96063446148764 82.79331306996755,92.4492761392903 83.6413373859832,90.93791161713307 83.91489361703862,89.57767824621988 84.73556230997201,88.85221839495352 85.31003039504867,88.70108074616292 85.20060790271964,87.67334308990394 84.10638297873084,86.31309766572667 84.70820668688975,84.71102439184324 84.62613981764298,84.13669454058982 86.70516717329156,82.47415571307647 87.93617021280807,80.81160938256653 88.29179331311025,80.75115301090409 89.33130699081812,79.90476276702248 94.72036474163178,73.97997660617693 96.38905775069725,73.46608760097297 97.48328267468605,73.37540123154758 100.35562310030218,73.64746027288493 101.86018237075768,73.25448603747645 103.41945288749412,73.64746027288493 103.88449848012533,72.74059602018679 104.02127659565303,73.10334198924829 104.95136778114829,73.37540123154758 106.1823708206648,74.37295006753993 106.67477203637827,75.249581662938 106.4559270516038,75.27981030140654 107.13981762924232,76.36803963512648 106.78419452882372,76.64009646623163 107.11246200604364,76.94238159840461 107.24924012145493,76.54941087821499 109.46504559274763,76.76101054888568 109.71124620072078,77.00283859515912 110.28571428568102,77.09352407144615 110.58662613970228,77.39580883164308 110.55927051662002,77.57717956867418 111.73556231008843,78.00037760773557 112.41945288749412,77.97014919252251 112.72036474163178,77.75855021641473 112.99392097257078,77.81900707905879 113.4589665653184,77.4864942113054 114.08814589655958,77.63763646114967 114.06079027359374,78.48403191418038 113.84194528870285,78.99791391904 113.51367781159934,79.26996880784282 113.21276595746167,79.23974049673416 113.10334346501622,79.54202349571278 112.96656534948852,81.144119248871 113.185410334263,81.77890997857321 114.52583586622495,83.07871615473414 115.26443768991157,84.40874563439866 115.51063829776831,84.43897352128988 115.4012158055557,85.25512553026783 116.00303951371461,85.46672020043479 116.74164133740123,86.19218671834096 117.04255319142248,86.16195897530997 116.96048632217571,86.82696874954854 117.2340425531147,87.18970084784087 117.89057750755455,87.46174968712148 118.43768996966537,88.30812256902573 118.51975683879573,89.00335598184029 118.8206686929334,88.97312846939894 119.23100303951651,89.39631341735367 120.10638297861442,88.519715485716 120.70820668688975,88.27789499954088 122.5957446807297,88.48948793357704 123.93617021269165,89.09403850405943 124.78419452882372,90.60541059024399 125.03039513668045,92.78177550205146 125.85106382984668,93.71881754652713 125.85106382984668,93.50722761574434 125.76899696048349,93.71881754652713 126.17933130683377,94.26290538205649 126.53495440725237,93.62813616261701 126.39817629172467,92.93291147687705 126.56231003045104,90.39381887140917 126.89057750755455,89.33585845452035 126.8632218844723,88.12675711512566 127.90273556229658,87.43152204816579 128.42249240120873,87.67334308990394 128.0395136778243,88.82199087017216 128.12158054707106,89.94040763613884 127.76595744676888,91.57268547156127 127.9574468084611,92.20745823235484 128.53191489353776,92.50973059114767 129.21580547105987,92.32836720556952 130.52887537982315,92.57018503316795 130.20060790271964,91.30063966781017 130.28267477208283,90.84722954867175 131.29483282670844,90.42404626728967 131.24012158054393,90.24268185501569 132.30699088145047,88.54994303526473 133.89361702126916,87.6128878443269 134.74164133728482,86.82696874954854 135.12462006078567,87.03856251700199 135.09726443770342,86.85719643812627 135.15197568375152,86.9176518075401 135.80851063830778,86.101503481681 137.2310030394001,86.25264219703968 138.98176291782875,87.21992850652896 139.3647416412132,87.76402593959938 139.31003039504867,88.94290095448378 140.92401215806603,88.61039812711533 141.3617021277314,88.70108074616292 141.6899696048349,88.27789499954088 142.56534954393283,88.30812256902573 143.08510638296138,87.8849363711488 144.8632218844723,88.33835013597854 145.4103343464667,87.8849363711488 145.60182370815892,87.06879018808831 146.2310030394001,86.76651336514624 145.2735562310554,86.85719643812627 144.9179331306368,86.31309766572667 144.34346504544374,84.86216367754969 141.8267477202462,83.9250991064473 141.9088145897258,83.53213583509205 144.12462006066926,84.28783406186267 144.56231003045104,84.10646662884392 146.0395136778243,84.49942928756354 146.6413373859832,84.40874563439866 147.02431610936765,83.74373149484745 147.89969604858197,83.71350355085451 148.3647416413296,84.40874563439866 149.10334346501622,84.80170797067694 149.10334346501622,85.04353073859238 149.37689969607163,85.37603678528103 149.67781155009288,85.22489771037363 149.84194528870285,84.10646662884392 149.6504559268942,83.38099600363057 150.8267477202462,83.4112239748938 151.01823708205484,83.07871615473414 151.4559270516038,82.86712011310738 151.5106382977683,83.19962812412996 151.264437690028,83.38099600363057 151.78419452882372,85.19466988791828 152.13981762924232,87.03856251700199 152.30395136761945,88.82199087017216 152.11246200604364,91.87495835119626 152.60486322187353,93.14450173743535 152.4133738601813,93.74904466961743 152.13981762924232,93.93040735585964 152.60486322187353,94.50472193985479 152.82370820676442,94.32335953632719 152.52279635251034,94.74653833900811 152.60486322187353,94.56517605454428 152.05775075987913,93.80949890826014 152.38601823709905,93.62813616261701 152.46808510634582,93.29563756345306 152.19452887540683,93.38631902937777 152.38601823709905,93.23518324058386 152.4133738601813,93.68859042102122 152.19452887540683,93.80949890826014 152.0030395135982,93.32586472126422 152.2765957446536,93.47700047289254 152.19452887540683,93.71881754652713 152.38601823709905,93.68859042102122 152.44072948326357,93.29563756345306 154.0,92.11677647632314" stroke="#ff0000" stroke-linecap="round" stroke-linejoin="round" stroke-width="0.5"><title>2023-05-01 12.6km</title></polyline><polyline fill="none" points="126.02604886703193,249.50457793322857 125.33509181719273,248.99596295511583 125.10477280057967,248.4025784987607 125.18154580658302,247.97873225039802 125.33509181719273,247.89396298018983 125.25831881165504,247.13103923469316 125.41186482273042,246.53765371162444 125.25831881165504,246.45288432366215 125.18154580658302,245.3508816473768 124.64413476735353,243.146872783429 124.95122678950429,241.4514781634207 124.33704274566844,237.89114044373855 124.02995072351769,237.46728990087286 124.02995072351769,236.45004789251834 123.49253968475387,234.66987197776325 123.49253968475387,234.16124972666148 123.10867465753108,233.65262722643092 122.9551286464557,233.05923399416497 122.72480962984264,232.6353814774193 121.64998755278066,231.44859350973275 120.88225749740377,230.93996967934072 119.5003433986567,230.68565767077962 118.11842929944396,231.0247403351823 117.65779126668349,231.0247403351823 117.19715323345736,231.27905226073926 116.81328820623457,231.95721709087957 116.35265017300844,232.21152878797147 115.66169312316924,232.21152878797147 113.51204896904528,232.55061095341807 112.74431891459972,232.46584042225732 110.97853978723288,232.97446350450628 110.44112874893472,232.80492250504903 110.5179017544724,232.80492250504903 110.36435574339703,232.7201519946684 110.5179017544724,232.7201519946684 109.9037177101709,232.88969300827011 109.13598765525967,232.88969300827011 109.05921464972198,232.97446350450628 108.59857661696151,232.88969300827011 108.21471158927307,233.22877495212015 107.13988951221108,232.55061095341807 106.29538645176217,232.29629933956312 105.06701836362481,231.19428162579425 104.4528343193233,230.93996967934072 104.52960732486099,230.68565767077962 103.83865027502179,229.6684090126655 103.5315582533367,228.82070103567094 102.68705519288778,228.14253415510757 102.5335091818124,227.6339087038068 102.6102821873501,227.21005397068802 101.15159508213401,227.8034505486139 100.3070920216851,227.88822146056918 99.23226994462311,227.54913777118782 98.3877668841742,226.95574104750995 97.69680983480066,225.93848873185925 96.77553376881406,223.9039811079856 94.70266262022778,220.08926855877507 92.86011048778892,217.12226021115202 91.55496939411387,215.85068260709522 89.86596327321604,214.91819137346465 87.48600010247901,214.663875437167 86.94858906418085,214.40955943823792 86.18085900880396,214.32478742481908 85.87376698711887,214.15524337714305 85.48990195943043,213.64661106764106 85.18280993727967,212.88366213603877 84.79894490959123,212.62934570090147 84.79894490959123,212.1207126431982 84.87571791512892,212.37502920336556 84.9524909206666,212.2054848370026 85.10603693174198,212.290257023531 85.10603693174198,212.62934570090147 84.9524909206666,212.7988899979391 84.87571791512892,212.62934570090147 85.0292639262043,212.290257023531 84.9524909206666,212.5445735420799 85.10603693174198,212.37502920336556 84.79894490959123,212.5445735420799 84.87571791512892,212.71411785285454 85.0292639262043,212.62934570090147 84.87571791512892,212.37502920336556 84.79894490959123,211.61207933624974 84.41507988236845,211.27299032657174 84.03121485468,211.18821805692278 83.95444184914231,210.8491289083613 84.03121485468,210.00140555237886 84.3383068763651,209.32322636869503 84.26153387129307,209.15368150366703 84.79894490959123,208.22118424990913 84.49185288790613,207.20391356252367 84.49185288790613,206.18664187728427 84.10798785975203,203.89777693815995 84.64539889898151,202.4566371634137 85.48990195943043,201.26981466886355 86.6414970420301,200.25253716402221 87.71631911909208,198.55707243917277 87.48600010247901,198.21797916147625 87.25568108586594,197.62456565909088 86.6414970420301,197.11592524393927 86.6414970420301,196.94637838331982 86.10408600326627,196.52251111104852 85.33635594835505,195.50522895052563 84.87571791512892,194.57271942688385 84.9524909206666,193.8945301559288 85.79699398111552,192.96201918419683 86.02731299772859,191.351316440152 85.9505399921909,190.92744688142557 86.33440501987934,190.58835110947257 86.71827004710212,189.9949332420947 87.71631911909208,189.6558371654246 88.10018414631486,189.4862890857039 88.71436819061637,189.5710631289985 89.32855223491788,188.2146776028676 89.17500622337684,187.45170996466186 88.86791420169175,187.28216152463574 88.40727616893128,186.34964460798074 87.25568108586594,185.07802927982993 87.02536206925288,183.7216378780431 87.10213507479057,182.70434316270985 87.02536206925288,182.53479394630995 87.17890808032826,182.45001932774903 87.02536206925288,182.53479394630995 87.17890808032826,182.61956855782773 87.02536206925288,182.789117760316 87.17890808032826,182.87389235093724 86.94858906418085,182.45001932774903 86.94858906418085,181.6022727615782 87.17890808032826,181.34794865670847 86.94858906418085,181.432723365142 87.40922709694132,180.58497596747475 87.40922709694132,180.33065161295235 88.25373015739024,178.46560444141505 88.10018414631486,178.55037938564783 88.10018414631486,178.46560444141505 88.25373015739024,178.2960545324022 88.33050316292793,177.9569546309649 88.94468720676377,177.53307959792437 88.86791420169175,176.93965426116483 88.40727616893128,176.68532901298022 88.4840491740033,176.43100370233878 87.5627731080167,175.75280256883707 87.3324540918693,175.41370183601975 87.25568108586594,175.41370183601975 87.25568108586594,175.66802739608102 86.79504305263981,175.66802739608102 86.79504305263981,175.92235289374366 86.33440501987934,175.75280256883707 85.72022097604349,174.65072478121147 85.79699398111552,174.8202752865618 85.41312895389274,174.7355000373791 85.33635594835505,174.9050505286432 84.7221719045192,174.39639897167217 84.7221719045192,174.56594951840816 84.41507988236845,174.4811742484453 84.18476086575538,173.7181965080672 83.95444184914231,173.97252248373115 83.72412283252925,173.3790951097617 84.03121485468,173.88774716539774 83.57057682191953,173.88774716539774 83.03316578315571,173.46387046959717 83.18671179423109,173.80297184013762 82.4189817388542,172.8704428045312 82.34220873331651,172.27701479988173 81.88157070055604,171.68358645559056 81.80479769501835,171.25970885896822 81.95834370609373,170.75105551443994 81.72802468948066,170.41195314592915 81.88157070055604,169.73374807683285 81.80479769501835,169.47942106140545 81.88157070055604,169.22509398375405 81.4977056728676,169.22509398375405 81.65125168394297,169.3098696831148 81.42093266779557,169.05554256390315 81.03706763964146,168.97076684358763 80.72997561795637,168.71643964125542 80.42288359580562,168.12300925969612 80.19256457919255,168.37733660754748 80.19256457919255,168.80121538211824 79.96224556257948,168.4621123764664 79.50160752935335,168.63166389334947 78.50355845829472,168.12300925969612 78.35001244721934,167.78390603198204 78.11969343060628,167.69913020788226 77.9661474195309,167.36002684157575 78.04292042506859,167.27525098260958 77.73582840291783,167.1904751168331 77.81260140845552,167.36002684157575 77.6590553978458,167.02092336450005 77.42873638123274,167.10569924424635 77.0448713535443,166.5970438622753 76.66100632632151,166.7665956839337 76.66100632632151,166.51226794108516 76.81455233739689,166.68181977648055 76.73777933139354,166.51226794108516 76.58423332078382,166.3427160778083 76.89132534246892,166.25794013566338 76.27714129863307,165.74928433803143 75.97004927648231,165.32540431589587 75.89327627094463,164.9863001734484 75.66295725433156,164.81674806092633 75.50941124325618,164.392867657647 75.35586523264647,164.22331544803455 75.43263823771849,164.05376321059885 74.97200020495802,163.9689870813163 74.4345891661942,163.20600160729373 74.1274971445091,163.20600160729373 73.5133131002076,162.86689677205868 73.59008610574529,162.95167299121385 73.28299408406019,162.95167299121385 72.82235605083406,162.61256807262544 72.97590206144378,162.27346304332605 72.97590206144378,162.01913419860648 72.592037034221,161.84958160074893 72.592037034221,161.7648052914301 72.592037034221,161.84958160074893 72.36171801760793,161.59525265183765 71.74753397330642,161.42569998488761 71.51721495715901,161.7648052914301 70.97980391839519,161.17137093207566 70.82625790731981,161.34092364099342 70.74948490224779,161.00181819556747 70.36561987455934,160.32360697269905 70.36561987455934,159.98450119496556 70.59593889117241,159.5606188167585 70.59593889117241,158.71285354049178 71.13334992993623,158.62807697494281 70.9030309128575,157.8650875715539 71.05657692393288,157.52598098979797 71.74753397330642,157.44120432710042 71.74753397330642,157.27165098080877 72.05462599592283,156.93254420498852 72.5152640286833,156.93254420498852 72.36171801760793,156.50866057915846 72.5152640286833,156.25433032098226 72.89912905637175,156.42388383339858 72.36171801760793,156.42388383339858 73.05267506744713,156.8477674939204 72.89912905637175,156.93254420498852 72.592037034221,156.8477674939204 72.5152640286833,156.42388383339858 73.12944807298481,156.76299077557633 73.05267506744713,156.93254420498852 72.89912905637175,156.8477674939204 73.20622107805684,157.01732090918813 73.28299408406019,156.8477674939204 72.82235605083406,157.10209760681028 72.97590206144378,157.27165098080877 72.592037034221,157.44120432710042 72.592037034221,157.10209760681028 72.20817200699821,156.93254420498852 72.36171801760793,157.18687429715646 72.28494501207024,157.10209760681028 72.5152640286833,156.93254420498852 72.43849102314562,157.01732090918813 72.5152640286833,157.27165098080877 72.592037034221,157.01732090918813 72.66881003975868,157.18687429715646 72.5152640286833,157.18687429715646 72.66881003975868,157.44120432710042 72.592037034221,157.35642765730154 72.74558304483071,157.35642765730154 72.74558304483071,157.10209760681028 72.97590206144378,156.93254420498852 72.74558304483071,156.93254420498852 72.74558304483071,157.01732090918813 72.97590206144378,156.76299077557633 72.74558304483071,156.42388383339858 72.43849102314562,156.42388383339858 72.74558304483071,156.50866057915846 72.36171801760793,156.42388383339858 73.12944807298481,156.76299077557633 72.592037034221,156.50866057915846 72.36171801760793,156.0 72.5152640286833,156.42388383339858 72.43849102314562,156.33910708071198 72.5152640286833,156.59343731839908 72.74558304483071,156.50866057915846 72.82235605083406,156.67821405048016 72.74558304483071,156.8477674939204 72.5152640286833,156.67821405048016 72.592037034221,156.1695535541512 72.36171801760793,156.1695535541512 72.5152640286833,156.25433032098226 72.43849102314562,156.1695535541512 72.36171801760793,156.33910708071198 72.592037034221,156.08477678062627 72.66881003975868,156.1695535541512 72.5152640286833,156.08477678062627 72.36171801760793,156.50866057915846 72.13139900099486,156.42388383339858 72.13139900099486,157.10209760681028 72.28494501207024,157.10209760681028 72.05462599592283,156.42388383339858 72.13139900099486,157.10209760681028 72.13139900099486,156.8477674939204 72.28494501207024,156.93254420498852 71.82430697930977,157.01732090918813 72.28494501207024,156.93254420498852 72.05462599592283,157.10209760681028 71.97785299038514,157.01732090918813 71.97785299038514,157.10209760681028 72.28494501207024,157.01732090918813 71.82430697930977,157.10209760681028 71.74753397330642,156.93254420498852 71.9010799843818,156.8477674939204 72.05462599592283,156.93254420498852 72.13139900099486,156.76299077557633 72.05462599592283,156.93254420498852 72.13139900099486,156.8477674939204 71.82430697930977,156.8477674939204 71.9010799843818,157.10209760681028 71.82430697930977,156.93254420498852 71.67076096823439,157.35642765730154 71.28689594054595,157.69553429447114 70.97980391839519,157.78031093656318 71.36366894608364,158.79763009917224 70.9030309128575,159.05195973423542 70.82625790731981,159.30628930649254 70.6727118967101,160.06927764986176 70.82625790731981,160.32360697269905 71.67076096823439,161.00181819556747 72.28494501207024,161.08659456728492 72.592037034221,161.25614728988148 73.66685911128297,162.52779182576342 74.20427014958113,162.35823931114282 74.66490818327293,162.61256807262544 76.50746031478047,164.6471959205228 77.12164435908198,165.91883629845688 78.58033146383241,167.36002684157575 79.42483452428132,167.69913020788226 80.11579157365486,168.20778504910413 80.4996566013433,168.2925608319929 81.4977056728676,168.71643964125542 81.95834370609373,169.3098696831148 81.95834370609373,169.98807502974523 82.34220873331651,171.8531374456361 82.49575474485755,172.27701479988173 84.03121485468,173.46387046959717 84.26153387129307,173.3790951097617 85.33635594835505,174.05729779519606 85.72022097604349,174.05729779519606 86.18085900880396,174.56594951840816 87.25568108586594,175.0746009919676 87.79309212462977,175.0746009919676 88.56082217954099,175.75280256883707 89.17500622337684,177.10920439229812 89.17500622337684,177.36352953658206 87.79309212462977,179.31335357157513 87.40922709694132,180.41542640479747 87.48600010247901,181.00884975295048 87.3324540918693,181.34794865670847 87.40922709694132,182.1109207845875 87.5627731080167,182.365244702145 87.40922709694132,183.46731429256033 87.5627731080167,184.65415715734707 88.17695715231821,185.50190122926142 88.94468720676377,186.94306456111372 89.32855223491788,187.36693574814126 89.48209824599326,188.04512928711483 89.48209824599326,188.63854827027535 88.86791420169175,189.5710631289985 88.02341114124283,189.5710631289985 87.02536206925288,189.91015923343366 86.6414970420301,190.24925522669218 86.33440501987934,191.09699472563807 86.10408600326627,191.18176863738336 85.9505399921909,191.85995968221687 86.18085900880396,192.3686026748037 86.02731299772859,192.96201918419683 85.33635594835505,193.64020906481892 85.18280993727967,193.97930383891799 85.41312895389274,193.97930383891799 85.79699398111552,193.5554353541229 85.87376698711887,193.64020906481892 86.41117802495137,193.5554353541229 87.25568108586594,193.64020906481892 88.10018414631486,192.19905503833434 88.02341114124283,192.4533764825319 88.40727616893128,192.28382885991596 88.33050316292793,192.53815028333338 88.10018414631486,192.53815028333338 88.02341114124283,192.70769786444725 87.8698651297018,192.53815028333338 87.63954611355439,192.87724541773787 87.48600010247901,192.70769786444725 87.71631911909208,192.87724541773787 87.40922709694132,192.87724541773787 87.63954611355439,192.79247164470144 87.5627731080167,192.87724541773787 87.63954611355439,192.79247164470144 87.71631911909208,192.96201918419683 87.79309212462977,192.6229240775574 87.79309212462977,193.13156669581076 86.94858906418085,194.23362484679092 87.17890808032826,194.9118138960912 88.25373015739024,196.26819066435564 89.48209824599326,197.45501888170838 90.86401234474033,198.47229913022602 92.01560742734,199.15048540802673 93.32074852101505,200.08299081621226 92.70656447671354,201.01549538609106 93.55106753716245,201.86322608584305 94.01170557038859,202.54141014674678 93.85815955977887,202.88050201087026 92.9368834933266,203.6434583000373 93.32074852101505,204.2368683590903 93.39752152655274,204.40641402790789 92.32269944949076,204.91505086788675 91.86206141626462,205.5932329336065 91.17110436689109,206.01709649938857 90.0962822898291,207.3734587461804 89.55887125106528,207.45823132776422 89.09823321830481,207.71254903072258 88.79114119615406,208.22118424990913 89.25177922938019,208.22118424990913 89.63564425660297,208.56027425744105 89.4053252399899,208.89936415385455 88.94468720676377,208.89936415385455 89.17500622337684,209.06890906061744 89.78919026767835,209.15368150366703 90.0962822898291,209.23845393990632 91.63174239965156,210.17095027898904 95.16330065345392,212.71411785285454 95.31684666406363,213.0532063919236 96.00780371390283,213.64661106764106 96.69876076327637,215.00296333845472 96.69876076327637,217.03748841956258 97.00585278496146,218.13952117203735 97.31294480711222,218.30906456854427 98.0806748624891,218.39383625623304 98.92517792293802,218.22429287381237 99.0787239340134,218.73292293859413 100.38386502768844,218.47860793740256 101.07482207706198,218.6481512784958 101.22836808813736,218.81769459194038 101.53546010982245,219.4110959704849 101.99609814304858,220.00449700962054 101.76577912690118,220.8522121910937 102.14964415412396,221.27606952167116 102.22641715966165,221.61515526199946 102.14964415412396,222.03901228116592 102.37996317073703,222.46286912693176 102.76382819842547,222.29332640953362 102.76382819842547,222.03901228116592 102.91737420903519,221.95424089103471 102.8406012034975,222.03901228116592 102.76382819842547,222.46286912693176 102.37996317073703,222.46286912693176 102.37996317073703,222.20855504041538 102.45673617627472,222.37809777166694 102.37996317073703,222.37809777166694 102.5335091818124,222.37809777166694 102.30319016519934,222.46286912693176 102.5335091818124,222.37809777166694 102.30319016519934,222.29332640953362 102.22641715966165,222.46286912693176 102.37996317073703,222.63241181703052 102.76382819842547,222.37809777166694 102.8406012034975,222.03901228116592 102.8406012034975,222.54764047567733 102.22641715966165,222.54764047567733 102.14964415412396,222.37809777166694 102.30319016519934,222.54764047567733 102.22641715966165,222.29332640953362 102.37996317073703,222.37809777166694 102.37996317073703,222.20855504041538 102.22641715966165,222.29332640953362 102.37996317073703,222.37809777166694 102.30319016519934,222.20855504041538 102.14964415412396,222.37809777166694 102.22641715966165,222.29332640953362 101.99609814304858,222.20855504041538 102.30319016519934,222.37809777166694 102.07287114905193,222.37809777166694 102.14964415412396,222.71718315174803 102.5335091818124,223.22581101354444 101.99609814304858,223.48012485087384 102.5335091818124,224.75169310288038 102.5335091818124,226.0232597963768 102.8406012034975,227.12528300331905 102.8406012034975,227.97299236577237 103.68510426441208,228.90547186450567 104.22251530271024,229.24455511046108 104.60638033039868,229.83795052493224 105.22056437470019,230.26180418446893 105.52765639638528,230.93996967934072 105.83474841853604,231.27905226073926 105.83474841853604,231.53336412407225 105.60442940192297,231.44859350973275 105.68120240746066,231.6181347311358 105.91152142407373,231.6181347311358 106.29538645176217,231.27905226073926 108.59857661696151,232.88969300827011 109.05921464972198,233.39831588277593 109.36630667187274,233.56785678531742 111.5159508259967,233.22877495212015 113.28172995243222,233.56785678531742 116.81328820623457,232.88969300827011 120.4216194646433,231.10951098409714 121.34289553109556,231.27905226073926 122.41771760769188,231.27905226073926 119.88420842634514,231.36382288875757 119.73066241526976,232.04198766330956 119.11647837143391,232.46584042225732 119.27002438250929,232.04198766330956 125.25831881165504,241.53624796035 126.7937789214775,244.33364736905787 126.17959487764165,243.23164244182408 126.56345990533009,243.74026024574414 126.94732493255287,244.84226463275263 127.33118996024132,245.3508816473768 125.94927586102858,246.45288432366215 126.02604886703193,246.79196183470776 126.02604886703193,246.28334552654997 127.02409793809056,252.30195585667389 127.1776439496316,254.08210151747335 127.4847359713167,255.5231695768307 127.33118996024132,256.20131855929503 127.79182799346745,257.64238367555663 127.71505498792976,258.15099441516213 128.482785042841,260.5245079030865 128.63633105391636,260.6092761415057 128.78987706499174,261.20265361649217 129.0201960816048,261.3721899759257 127.94537400454283,260.5245079030865 127.86860099900514,260.6940443730564 128.02214700961486,259.5920568231959 127.71505498792976,259.93113004014594 127.407962965779,259.84636174637126 127.02409793809056,260.1006666070898 129.4040611088276,263.2370880980743 129.1737420926802,263.0675520434743 128.63633105391636,263.15232007426675 128.55955804884434,262.98278400604613 128.94342307606712,262.72847985173576 129.1737420926802,262.64371178648435 129.48083411436528,262.81324791000225 129.63438012544066,264.0" stroke="#4dd2ff" stroke-linecap="round" stroke-linejoin="round" stroke-width="0.5"><title>2023-04-29 4.6km</title></polyline></svg>