<?xml version="1.0" encoding="utf-8" ?>
<svg baseProfile="full" height="300mm" version="1.1" viewBox="0,0,200,300" width="200mm" xmlns="http://www.w3.org/2000/svg" xmlns:ev="http://www.w3.org/2001/xml-events" xmlns:xlink="http://www.w3.org/1999/xlink"><defs /><rect fill="#222222" height="300" width="200" x="0" y="0" /><text fill="#FFFFFF" style="font-size:12px; font-family:Arial; font-weight:bold;" x="10" y="20">Activities</text><text fill="#FFFFFF" style="font-size:4px; font-family:Arial" x="10" y="280">ATHLETE</text><text fill="#FFFFFF" style="font-size:9px; font-family:Arial" x="10" y="290">Ricky</text><text fill="#FFFFFF" style="font-size:4px; font-family:Arial" x="120" y="280">STATISTICS</text><text fill="#FFFFFF" style="font-size:3px; font-family:Arial" x="120" y="285">Number: 3</text><text fill="#FFFFFF" style="font-size:3px; font-family:Arial" x="120" y="290">Weekly: 1.5</text><text fill="#FFFFFF" style="font-size:3px; font-family:Arial" x="141" y="285">Total: 23.2 km</text><text fill="#FFFFFF" style="font-size:3px; font-family:Arial" x="141" y="290">Avg: 7.7 km</text><text fill="#FFFFFF" style="font-size:3px; font-family:Arial" x="167" y="285">Min: 4.6 km</text><text fill="#FFFFFF" style="font-size:3px; font-family:Arial" x="167" y="290">Max: 12.6 km</text><polyline fill="none" points="95.5,57.25318332272582 94.98594741616398,56.969542692851974 93.77425203984603,56.64538177489885 93.51722574792802,56.442781093966914 93.33363553928211,56.40226094779791 93.18676337250508,56.442781093966914 93.03989120572805,56.36174079836928 92.78286491381004,56.321220645681024 92.30553037161008,55.9970593052858 92.01178603805602,55.91601893727784 90.61650045332499,55.67289775374229 89.80870353593491,55.34873599090497 89.51495920214802,55.308215755649144 89.11106074345298,55.06509427513811 89.18449682695791,54.984053755091736 88.92747053480707,54.740932116052136 88.81731640989892,54.78145239755395 88.11967361741699,54.65989154341514 88.11967361741699,54.57885095741949 88.00951949227601,54.49781035829801 87.93608340877108,54.61937125201803 87.67905711685307,54.740932116052136 87.31187669979408,54.740932116052136 86.504079782404,55.146134781767614 86.13689936534502,55.18665503014927 85.76971894828603,55.146134781767614 85.10879419767298,54.984053755091736 84.04397098813206,55.02457401674474 83.67679057107307,54.94353349026642 83.30961015424691,55.06509427513811 82.42837715311907,55.10561453012633 81.65729827759787,54.984053755091736 81.14324569376186,54.984053755091736 81.43699002731591,54.78145239755395 80.48232094291598,54.61937125201803 79.71124206692912,54.61937125201803 78.27923844056204,54.862492950458545 77.91205802350305,54.78145239755395 77.21441523125395,54.78145239755395 76.25974614685401,54.984053755091736 75.26835902081802,55.34873599090497 73.54261106066406,55.67289775374229 71.59655485046096,56.15914000198245 71.4496826834511,56.28070048976224 71.00906618312001,56.483301236701664 70.27470534900203,56.68590190113173 69.32003626483493,56.84798237335053 68.879419764271,57.05058288923465 68.03490480524488,57.09110298243468 65.24433363554999,57.01006279265857 64.73028105148114,57.09110298243468 63.592021758900955,56.92902258961112 63.077969174832106,57.01006279265857 63.298277425114065,57.25318332272582 62.894378966419026,57.45578367359121 62.23345421580598,57.45578367359121 61.75611967360601,57.77994406345533 61.35222121491097,58.225664254365256 61.20534904813394,58.468784190306906 61.16863100649789,58.8334638713859 61.27878513140604,58.995543643744895 60.94832275621593,59.27918311848771 60.72801450593397,59.56282243144233 60.54442429752089,59.684382087463746 60.39755213074386,59.88698144812952 59.73662737989798,60.211140253726626 58.89211242063902,60.454259219317464 57.717135085957125,60.49477903533261 56.54215775174089,60.41373939992627 56.10154125117697,60.454259219317464 55.33046237542294,60.211140253726626 55.14687216677703,60.211140253726626 54.66953762457706,60.81893744473928 54.04533091583289,61.95349021462607 53.71486854040995,62.35868700538413 51.989120580255985,65.23557472930406 51.842248413478956,65.55973004965927 50.74070716230199,67.01842637758818 50.00634632818401,68.35556092089973 50.00634632818401,68.51763759113965 49.23526745242998,69.73321093409322 47.39936536713503,73.1368004938995 46.628286491381004,74.35236255105701 46.224388032685965,74.87910518670105 46.114233907544985,75.12221698433859 45.893925657263026,75.32481005831505 45.63689936557785,75.85155166455661 44.02130553033203,78.12058605460334 43.83771532191895,78.323177907645 43.32366273808293,78.56628802244086 43.21350861294195,78.76887969402014 42.84632819611579,79.09302619684604 41.85494106984697,80.43012828927021 41.74478694470599,80.63271920199622 40.386219401611015,82.21292548970087 39.72529465099797,83.14483966576518 39.61514052585699,83.18535763386171 38.91749773360789,84.0362342010194 38.33000906626694,84.96814496224397 37.63236627401784,85.65694744646316 37.00815956480801,86.54833748133387 36.45738893933594,87.15610249855672 36.01677243900485,87.844901954144 36.0534904806409,87.96645470021758 35.466001813299954,88.12852498222492 35.319129646522924,88.20956010339432 34.841795104322955,88.89835810067598 34.548050770536065,89.42508533762884 33.77697189478204,90.39750338697922 31.57388939266093,92.4233682200138 31.09655485046096,92.70698863844154 30.105167724424973,93.67940027441364 29.150498640025035,94.16560537990881 28.783318222966045,94.48974185285624 28.489573889644817,94.6112929758965 28.232547597493976,94.93542915856233 27.38803263846785,95.30008211176028 26.8005439711269,95.74576869161683 26.28649138705805,96.02938721646206 25.95602901186794,96.27248868058086 25.44197642803192,96.47507314325776 24.046690843300894,97.28541016913368 22.137352674733847,98.055229121499 17.841341795166954,99.31124696097686 15.821849501458928,99.79744656386902 15.381233001127839,99.91899639045005 15.16092475084588,100.28364569184487 15.16092475084588,100.44571196223842 15.234360834117979,100.52674507765914 15.0507706257049,100.36467883351725 14.83046237542294,100.52674507765914 14.75702629215084,99.95951299270382 14.79374433355406,100.48622852159315 14.5,100.64829472600832 14.75702629215084,100.48622852159315 14.64687216700986,99.87847978493664 14.9773345424328,99.8379631760472 16.446056210435927,99.55434682185296 18.722574796061963,98.90608026241534 19.163191296625882,98.82504688311019 20.63191296486184,98.41987978870748 22.651405258569866,97.69057818720466 25.14823209424503,96.51559002586873 26.69038984598592,95.66473479784327 28.122393472352996,94.73284406913444 28.563009972916916,94.40870775436633 28.599728014552966,94.28715658199508 28.563009972916916,94.16560537990881 28.342701722634956,94.36819070027559 28.342701722634956,94.5302588972263 28.379419764503837,94.57077593813301 28.599728014552966,94.5302588972263 30.288757933070883,93.11216038436396 30.545784224988893,92.86905737634515 30.582502266624942,92.70698863844154 30.912964642047882,92.54491984771448 33.70353581150994,90.03284684114624 34.291024478850886,89.34405041424907 34.548050770536065,89.14146304843598 34.951949229463935,88.57421798541327 35.576155938440934,87.9259371215303 35.612873980309814,87.80438436556142 35.796464188722894,87.64231397799449 36.45738893933594,86.79144357738551 36.75113327289,86.54833748133387 37.22846781508997,85.85953623094247 37.59564823214896,85.53539413621183 37.66908431565389,85.33280521968845 37.9261106075719,85.00866278179456 38.29329102463089,84.68452013275237 40.276065276470035,82.25344353370019 40.312783318338916,82.0913713380578 40.826835902174935,81.48360013437923 41.451042611151934,80.5516828468244 41.67135086143389,80.30857370214653 42.22212148690596,79.4982090286212 43.02991840452887,78.68784303538268 43.39709882135503,78.60680636332836 43.61740707163699,78.323177907645 43.8009972802829,78.2421411764517 44.24161378061399,77.71540210110834 45.08612873987295,76.25673713602009 45.41659111529589,75.93258878521738 46.077515865908936,74.96014246583218 46.187669991049916,74.71703058900312 47.068902991944924,73.50146942285937 48.24388032639399,71.27293290485977 50.85086128744297,67.13998421197175 51.952402538619936,65.11401642972487 52.907071623019874,63.73635362513596 55.25702629191801,59.88698144812952 55.47733454219997,59.76542184167192 55.77107887575403,59.72490196613944 56.02810516790487,59.56282243144233 56.06482320930809,59.36022293867427 55.95466908439994,59.03606357864919 55.99138712603599,58.91450376418652 56.13825929281302,58.79294391995063 56.46872166800313,58.671384045970626 56.46872166800313,58.468784190306906 56.57887579314411,58.34722423722269 60.3241160470061,54.01156648615142 60.72801450593397,53.60636289624381 61.53581142332405,53.12011815272854 63.188123299973086,52.269188707723515 65.75838621915318,51.01305210485589 67.85131459659897,50.243160360871116 68.29193109716289,50.16211905531236 70.2012692654971,49.55430884301313 70.89891205797903,49.43274671150721 73.46917497739196,49.55430884301313 74.82774252048694,49.35170527402079 75.85584768815897,49.35170527402079 77.72846781508997,49.55430884301313 78.13236627378501,49.635350247699535 78.499546690844,49.837953701178776 78.46282864897512,49.918995059648296 78.5729827741161,51.01305210485589 78.499546690844,52.228668221709086 78.5729827741161,53.890005443798145 78.64641885762103,54.21416815731209 78.83000906626694,54.45729005368776 79.45421577524394,54.49781035829801 80.77606527647004,54.78145239755395 84.41115140519105,54.984053755091736 84.74161378061399,54.94353349026642 85.29238440608606,55.06509427513811 85.73300090664998,55.06509427513811 86.1736174072139,54.984053755091736 87.71577515872195,54.335729120328324 87.82592928386293,54.335729120328324 88.89075249317102,54.538330659561325 88.89075249317102,54.700411831378005 89.33136899350211,55.06509427513811 90.13916591112502,55.02457401674474 90.39619220304303,55.18665503014927 90.35947416140698,55.34873599090497 90.46962828654796,55.47029667670722 91.05711695388891,55.591857332823565 91.42429737071507,55.55133711732924 91.82819582964294,55.63237754497095 92.59927470539697,55.91601893727784 92.67271078866906,56.03757948442944 92.8195829554461,56.078099660167936 92.89301903895102,55.91601893727784 92.92973708058707,56.03757948442944" stroke="#4dd2ff" stroke-linecap="round" stroke-linejoin="round" stroke-width="0.5"><title>2023-05-06 5.9km</title></polyline><polyline fill="none" points="140.38373860169668,56.13808710646117 139.80927051662002,56.09274286299478 139.66565349523444,56.43282450753031 138.47568389039952,57.36237886658637 137.0189969604835,58.17857035883935 136.17781155009288,58.450633653701516 134.45440729463007,59.69758699333761 131.60258358647116,60.51377158600371 131.0075987840537,61.10323673658422 129.55091185402125,60.740489100513514 128.81231003033463,60.71781735739205 128.25835866248235,60.9445347043511 124.17553191469051,61.670028964435915 123.72416413365863,61.91941717630834 123.37537993909791,62.44086452809279 122.41109422477894,62.6222372893244 122.02127659565303,63.211697941005696 122.06231003033463,63.914514766511275 121.89817629160825,64.4359583525802 122.47264437668491,65.18411482227384 122.49316109414212,65.52418527510599 122.10334346501622,66.24966750873136 121.61094224906992,66.81644917817903 121.91869300906546,67.29254488195875 121.83662613970228,67.72329743087175 122.1238601822406,68.1767204409989 122.10334346501622,68.60747161135077 122.30851063819136,68.78884032429778 122.1238601822406,69.40095885144547 121.7545592704555,69.92239208272076 121.46732522780076,70.05841798117035 121.32370820653159,70.53450809846981 120.8723404253833,70.9652555930079 120.83130699081812,72.21215244941413 120.33890577498823,72.91494637989672 120.4620060789166,73.23233660121332 120.25683890574146,73.20966588324518 120.0516717324499,73.4590436789731 118.86170212749857,73.59506783634424 116.93313069897704,74.4112113743904 116.56382978707552,74.7285998770385 115.8252279633889,74.54723506298615 114.34802431589924,74.86462340943399 113.44528875360265,74.4112113743904 112.54255319130607,74.25251698636566 112.02963525813539,74.4112113743904 111.63981762900949,74.32052887804457 111.10638297861442,74.63791748488438 111.00379939191043,74.56990567129105 110.7165653493721,74.86462340943399 110.28571428568102,74.93263515044237 109.9574468084611,75.29536415357143 109.87537993909791,75.77144524749019 110.01899696036708,76.11150266948971 110.28571428568102,76.20218457799638 110.36778115481138,76.45155967294704 109.87537993909791,76.47423012499348 109.75227963516954,76.7009345429542 109.58814589655958,77.04099082108587 109.46504559263121,77.7437724697811 109.23936170199886,77.83445384266088 109.19832826731727,78.21984934533248 108.43920972628985,79.21734109162935 108.13145896641072,80.50954095483758 107.023556230939,82.25513468435383 107.08510638284497,82.70853384913062 106.85942249221262,83.6606696737872 105.91565349535085,84.63547200063476 105.54635258356575,86.76642325278954 105.11550151964184,88.44396906279144 104.66413373849355,89.64544831740204 104.54103343456518,90.57489095022902 104.68465045583434,90.59756024371018 104.70516717305873,90.68823739897925 104.58206686913036,90.57489095022902 104.64361702115275,90.73357596539427 104.58206686913036,90.62022953529959 104.5,90.71090668311808 104.99240121559706,90.59756024371018 105.42325227952097,90.80158380116336 105.93617021269165,90.75624524586601 106.12082066864241,91.07361497686361 106.38753799372353,91.02827646615333 106.51063829776831,91.32297665273654 106.63373860169668,91.1416227289883 107.023556230939,91.27763818297535 107.06458966550417,91.050945722498 107.26975683879573,90.82425307607627 107.53647416399326,90.89226088946452 107.49544072942808,90.98293794807978 107.55699088133406,90.84692234906834 107.88525835855398,90.91493015692686 108.00835866248235,90.82425307607627 108.00835866248235,91.02827646615333 108.19300911843311,90.93759942246834 108.00835866248235,90.86959162016865 108.13145896641072,91.07361497686361 108.6443768995814,91.27763818297535 108.54179331299383,91.36831511507626 108.50075987831224,91.20963046432007 108.56231003021821,91.32297665273654 108.6443768995814,91.18696122104302 108.82902735553216,91.27763818297535 109.01367781148292,91.52699967470835 109.17781154997647,91.27763818297535 109.01367781148292,91.25496894528624 109.25987841933966,91.20963046432007 109.36246200592723,91.27763818297535 109.05471124616452,91.16429197593243 109.13677811529487,90.98293794807978 109.38297872326802,90.96026868620538 109.21884498465806,90.89226088946452 109.50607902719639,90.96026868620538 109.79331306973472,90.75624524586601 109.99848024302628,90.86959162016865 110.3882978722686,90.71090668311808 110.63449848012533,90.86959162016865 110.94224924000446,90.68823739897925 111.24999999988358,90.91493015692686 111.53723404242191,90.82425307607627 111.63981762900949,91.00560720806243 112.09118541027419,90.86959162016865 113.2811550151091,91.20963046432007 113.7530395135982,90.84692234906834 114.1428571427241,90.82425307607627 114.47112461994402,90.48421375779435 115.06610942236148,90.28018996599712 115.57902735553216,89.8268032229389 115.72264437680133,89.7814645076869 115.7841945287073,89.96281932390411 116.29711246187799,89.84947257771273 116.74848024302628,90.23485132522183 116.83054711238947,90.16684334995807 116.7074468084611,90.16684334995807 116.78951367759146,90.28018996599712 116.83054711238947,90.16684334995807 116.87158054695465,90.21218200202566 116.76899696036708,90.28018996599712 116.89209726429544,90.21218200202566 116.89209726429544,90.48421375779435 117.19984802417457,90.55222165491432 117.097264437587,90.71090668311808 117.17933130683377,90.62022953529959 117.4460486320313,90.89226088946452 117.56914893607609,90.75624524586601 117.65121580543928,91.1416227289883 118.04103343456518,91.20963046432007 118.67705167154782,90.86959162016865 118.77963525813539,91.1416227289883 119.2310030394001,91.30030741877272 119.37462006066926,91.57233810360776 119.68237082054839,91.52699967470835 119.57978723396081,91.73102254618425 120.0106382976519,92.0030528070638 119.88753799383994,92.02572198334383 120.0516717324499,92.27508280024631 120.31838905764744,92.43376683929819 120.29787234030664,92.61511991519365 120.48252279614098,92.66045816557016 120.4620060789166,92.88714930604328 120.70820668677334,92.93248751177453 120.62613981752656,93.0685020844976 120.9133738600649,93.13650934564066 120.95440729474649,93.29519289018936 121.28267477196641,93.47654540097574 121.36474164121319,93.27252381795552 121.54939209716395,93.47654540097574 122.04179331287742,93.31786196053145 122.00075987831224,93.5445525617688 122.1648936169222,93.52188350999495 122.24696048616897,93.58989065967035 122.22644376882818,93.63522875020863 122.37006079009734,93.58989065967035 122.43161094211973,93.88458811497549 122.5957446807297,93.86191909114132 122.43161094211973,93.77124297703267 122.65729483263567,93.70323587200255 122.49316109414212,93.77124297703267 122.67781155009288,93.77124297703267 122.63677811541129,93.88458811497549 122.49316109414212,93.77124297703267 122.71884498465806,93.90725713700522 122.69832826731727,93.63522875020863 122.5341945287073,93.65789779264014 122.71884498465806,93.63522875020863 122.5957446807297,93.5672216116509 122.73936170199886,93.5445525617688 122.67781155009288,93.52188350999495 122.90349544060882,93.38586916044005 122.84194528858643,93.31786196053145 123.10866261390038,93.29519289018936 122.944528875174,93.18184751056833 123.08814589655958,93.00049480647431 123.04711246187799,93.15917842905037 123.27279635239393,92.95515661186073 123.4369300911203,93.04583299366641 123.33434650441632,92.75113464408787 123.53951367770787,92.75113464408787 123.74468085088301,92.47910511941882 124.01139817619696,92.75113464408787 124.19604863214772,92.68312728800811 124.17553191469051,92.81914198337472 124.17553191469051,92.7057964085543 124.56534954393283,92.75113464408787 124.91413373860996,93.00049480647431 126.45288753788918,93.0685020844976 127.2120060789166,92.72846552726696 127.29407294816338,92.54711252567358 127.68389057740569,92.43376683929819 128.40197568375152,92.59245078722597 129.3047112460481,92.56978165739565 129.7560790273128,92.11639867009944 129.85866261390038,92.18440616564476 129.7765957445372,91.9350452669023 130.45364741631784,91.11895348018152 130.6588145896094,90.14417402120307 130.28951367770787,89.30540754890535 130.47416413365863,88.69333311120863 130.08434650441632,88.17193529882934 130.04331306985114,87.58252789164544 130.33054711238947,87.46918016931158 130.94604863214772,87.6051974305883 131.4179331305204,87.33316284103785 132.15653495432343,87.3558324004116 132.44376899674535,87.08379756539944 132.44376899674535,86.58506633911747 132.85410334332846,86.40370930635254 132.81306990864687,86.2676914537733 133.1413373858668,86.31303074545576 132.91565349535085,86.08633421277045 133.1003039513016,85.97298587675323 133.0592705165036,85.85963749422808 133.30547112447675,85.90497685276205 133.42857142840512,86.01832521674805 133.9825227962574,85.58760118644568 133.46960486308672,85.15687648483436 133.44908814574592,85.24755542524508 133.40805471118074,85.179546222731 133.65425531903747,84.49945327770547 133.5311550149927,84.40877409192035 133.73632218840066,84.38610429083928 132.89513677801006,83.59266008090344 133.120820668526,83.456640844699 133.75683890562505,82.16445476212539 134.24924012145493,81.71105470470502 134.31079027347732,81.39367422190844 134.31079027347732,81.55236450885423 134.3928571427241,81.46168435600703 134.3518237080425,81.37100417344482 134.3518237080425,81.48435439707828 134.20820668677334,81.23498384375125 134.33130699081812,81.46168435600703 133.4901215804275,80.396190331463 133.5106382977683,78.7185956685571 132.89513677801006,78.37854145487654 132.03343465039507,78.19717903653509 131.8282674769871,77.97047584608663 132.09498480230104,76.8369571044459 132.7310030394001,75.70343371282797 132.93617021269165,74.68325868467218 133.5516717324499,74.13916379620787 133.9825227962574,74.02581055960036 133.9004559268942,73.25500731740613 133.07978723396081,72.23482324928045 133.5311550149927,71.0332682938897 133.46960486308672,70.60252090543509 135.02887537993956,69.35561678480008 135.95212765946053,68.10870703691035 136.21884498477448,68.06336475818534 136.99848024302628,67.42857207523775 141.04027355613653,62.984982454625424 142.29179331299383,62.599565700715175 143.11246200592723,62.53155092365341 145.26671732508112,62.735595204663696 146.39513677801006,62.44086452809279 147.56458966550417,62.735595204663696 147.9133738600649,62.05544701512554 148.01595744665246,62.32750649191439 148.7135258357739,62.53155092365341 149.6367781154113,63.27971255063312 150.0060790271964,63.9371862472035 149.84194528858643,63.95985772603308 150.35486322187353,64.77602972634486 150.08814589655958,64.98007234965917 150.33434650441632,65.20678619880346 150.4369300910039,64.91205815866124 152.0987841944443,65.07075791165698 152.28343465039507,65.25212894636206 152.71428571408615,65.32014305357006 152.9399696047185,65.54685662372503 152.9194528873777,65.68288467649836 153.8016717324499,66.0002832057944 154.31458966550417,65.97761189437006 154.54027355613653,65.81891266230377 154.74544072931167,65.86425530927954 155.0942249238724,65.6148706584645 155.56610942224506,65.72822734585498 155.5455927051371,66.36302393561346 155.38145896641072,66.74843543928 155.13525835855398,66.95247660586028 154.90957446803804,66.92980537252151 154.82750759867486,67.15651762179914 154.72492401208729,68.35808943663142 154.88905775058083,68.83418248392991 155.8943768995814,69.80903711603605 156.44832826731727,70.80655922577716 156.63297872326802,70.82923014095286 156.55091185402125,71.4413441476936 157.00227963516954,71.60004015031154 157.5562310029054,72.14414003872662 157.78191489353776,72.12146923146793 157.72036474151537,72.62022656213958 157.92553191480692,72.89227563588065 158.4179331305204,73.09631226534839 158.8282674771035,73.73109192677657 158.88981762900949,74.25251698636566 159.11550151964184,74.22984635204193 159.42325227952097,74.54723506298615 160.0797872338444,73.88978661427973 160.5311550151091,73.7084212496411 161.94680851045996,73.86711595018278 162.95212765946053,74.32052887804457 163.58814589644317,75.45405794266844 163.77279635239393,77.08633162654587 164.3882978722686,77.78911315987352 164.3882978722686,77.6304207117937 164.3267477202462,77.78911315987352 164.63449848000892,78.19717903653509 164.90121580532286,77.72110212195548 164.7986322187353,77.19968360764324 164.92173252278008,75.29536415357143 165.1679331305204,74.50189384087571 165.1474164131796,73.59506783634424 165.92705167166423,73.07364153611707 166.31686930090655,73.25500731740613 166.0296352582518,74.11649315262912 166.0911854102742,74.95530572711141 165.82446808496024,76.1795141036564 165.9680851062294,76.65559367425158 166.3989361700369,76.8822979433462 166.9118541032076,76.74627540417714 167.89665653486736,76.92763877485413 167.65045592701063,75.9754797508649 167.7120060789166,75.63542216148926 168.47112461994402,75.31803470046725 168.43009118526243,75.18201139126904 169.23024316097144,73.91245727645583 170.42021276580635,73.20966588324518 171.0562310029054,72.62022656213958 171.34346504556015,72.77892188774422 171.32294832810294,72.6428973285947 171.36398176278453,72.68823885565507 171.85638297861442,72.07612761124619 172.92325227952097,72.18948164777248 174.23632218828425,72.91494637989672 174.52355623082258,73.32301945469226 174.4825227962574,74.20717571585556 175.6930091184331,73.9577985953365 176.02127659565303,74.02581055960036 176.26747720350977,73.7084212496411 176.92401215794962,73.73109192677657 177.31382978707552,73.41370227833977 178.647416413296,73.75376260199118 179.0577507597627,73.41370227833977 179.20136778103188,72.80159264104441 179.67325227952097,72.57488502384513 178.95516717317514,72.6428973285947 178.6884498478612,72.23482324928045 178.2575987840537,71.14662275815499 176.37006079009734,70.44382432982093 176.43161094223615,70.14910187630448 178.09346504544374,70.71587554638973 178.42173252278008,70.57984997163294 179.5296352582518,70.8745719656581 179.9810030394001,70.80655922577716 180.26823708193842,70.30779862112831 180.92477203637827,70.28512766314088 181.273556230939,70.80655922577716 181.82750759867486,71.10128097800771 181.82750759867486,71.28264805395156 182.0326747719664,71.5320275889535 182.25835866248235,71.41867328278022 182.38145896641072,70.57984997163294 182.23784194514155,70.03574700269382 183.12006079009734,70.05841798117035 183.26367781148292,69.80903711603605 183.59194528858643,69.65034008480143 183.6329787231516,69.89972109309747 183.44832826743368,70.03574700269382 183.83814589655958,71.39600241591688 184.10486322187353,72.77892188774422 184.22796352568548,74.11649315262912 184.08434650441632,76.40621876338264 184.45364741631784,77.35837630307651 184.31003039504867,77.81178350219852 184.10486322187353,77.94780551688746 184.45364741631784,78.37854145487654 184.6177811549278,78.24251965223812 184.39209726429544,78.55990375424153 184.45364741631784,78.42388204089366 184.04331306973472,77.85712418117328 184.28951367770787,77.72110212195548 184.35106382961385,77.47172817256069 184.1458966564387,77.53973927200423 184.28951367770787,77.42638743043062 184.31003039504867,77.76644281574409 184.1458966564387,77.85712418117328 184.00227963505313,77.49439854093362 184.2074468084611,77.60775035468396 184.1458966564387,77.78911315987352 184.28951367770787,77.76644281574409 184.33054711227305,77.47172817256069 185.5,76.5875823572278" stroke="#ff0000" stroke-linecap="round" stroke-linejoin="round" stroke-width="0.5"><title>2023-05-01 12.6km</title></polyline><polyline fill="none" points="74.51953665027395,254.62843344995053 74.00131886289455,254.24697221635142 73.82857960066758,253.80193387408508 73.88615935482085,253.48404918779852 74.00131886289455,253.42047223512782 73.94373910874128,252.84827942604898 74.05889861704782,252.40324028371833 73.94373910874128,252.3396632427466 73.88615935482085,251.51316123554716 73.48310107574798,249.86015458760085 73.71342009212822,248.58860862260917 73.25278205936775,245.9183553328039 73.02246304275468,245.60046742565464 73.02246304275468,244.83753591938876 72.61940476368181,243.50240398338065 72.61940476368181,243.12093729502521 72.33150599314831,242.7394704198232 72.21634648507461,242.29442549560918 72.04360722261481,241.97653610812267 71.23749066470191,241.08644513232866 70.66169312340207,240.70497725950554 69.62525754910894,240.51424325309927 68.5888219748158,240.76855525141582 68.2433434498962,240.76855525141582 67.89786492520943,240.9592891955399 67.60996615467593,241.46791281818878 67.26448762975633,241.6586465910077 66.74626984260976,241.6586465910077 65.13403672701679,241.9129582151072 64.55823918594979,241.84938031673664 63.23390484065749,242.2308476283797 62.83084656181745,242.10369187878678 62.88842631597072,242.10369187878678 62.773266807664186,242.04011399601586 62.88842631597072,242.04011399601586 62.42778828297742,242.1672697562026 61.85199074167758,242.1672697562026 61.794410987291485,242.2308476283797 61.448932462604716,242.1672697562026 61.161033691838384,242.42158121411921 60.35491713415831,241.9129582151072 59.72153983870521,241.7222245046869 58.80026377271861,240.89571121934569 58.33962573972531,240.70497725950554 58.39720549387857,240.51424325309927 57.878987706499174,239.75130675954279 57.64866869011894,239.1155257767532 57.01529139466584,238.60690061637433 56.900131886359304,238.2254315278842 56.95771164051257,237.90754047804512 55.86369631183334,238.35258791147498 55.230319016380236,238.41616609547054 54.424202458700165,238.1618533284054 53.790825163247064,237.71680578566156 53.272607376333326,236.95386654889444 52.58165032672696,235.4279858309892 51.02699696528725,232.5669514191104 49.64508286607452,230.34169515839312 48.66622704570182,229.38801195536507 47.399472455028445,228.6886435301276 45.61450007697567,228.4979065778898 45.21144179813564,228.30716957873665 44.6356442568358,228.24359056865796 44.40532524022274,228.11643253290094 44.117426469456404,227.73495830077445 43.88710745307617,227.16274660202907 43.599208682309836,226.97200927569065 43.599208682309836,226.5905344824423 43.65678843669593,226.78127190255327 43.71436819038354,226.6541136277956 43.8295276989229,226.71769276767736 43.8295276989229,226.97200927569065 43.71436819038354,227.0991674984689 43.65678843669593,226.97200927569065 43.771947944769636,226.71769276767736 43.71436819038354,226.90843015658902 43.8295276989229,226.78127190255327 43.599208682309836,226.90843015658902 43.65678843669593,227.03558838967 43.771947944769636,226.97200927569065 43.65678843669593,226.78127190255327 43.599208682309836,226.20905950223096 43.311309911776334,225.95474274497246 43.02341114124283,225.89116354269208 42.965831386856735,225.63684668130009 43.02341114124283,225.00105416431325 43.25373015739024,224.49241977650672 43.1961504034698,224.36526112776482 43.599208682309836,223.6658881874755 43.36888966616243,222.9029351719073 43.36888966616243,222.1399814080214 43.08099089516327,220.42333270364907 43.484049174236134,219.34247787256027 44.117426469456404,218.45236100169132 44.98112278152257,217.68940287304576 45.78723933943547,216.41780432942323 45.61450007697567,216.16348437115084 45.441760814515874,215.71842424431816 44.98112278152257,215.33694393298356 44.98112278152257,215.20978378748987 44.578064502449706,214.89188333327183 44.00226696114987,214.12892171292333 43.65678843669593,213.42953957017744 43.71436819038354,212.9208976169466 44.34774548606947,212.22151438816218 44.52048474852927,211.013487330114 44.462904994376004,210.69558516109828 44.750803764909506,210.44126333208987 45.03870253544301,209.99619993160013 45.78723933943547,209.74187787406845 46.075138109968975,209.61471681430703 46.53577614296228,209.67829734674888 46.99641417618841,208.6610082021798 46.881254667649046,208.0887824735255 46.65093565126881,207.9616211435059 46.30545712658204,207.26223345601466 45.441760814515874,206.30852195987245 45.269021552056074,205.29122840851778 45.32660130620934,204.52825737203239 45.269021552056074,204.40109545976156 45.38418106036261,204.33751449582633 45.269021552056074,204.40109545976156 45.38418106036261,204.4646764183999 45.269021552056074,204.59183832025155 45.38418106036261,204.65541926323203 45.21144179813564,204.33751449582633 45.21144179813564,203.7017045711982 45.38418106036261,203.5109614925459 45.21144179813564,203.5745425238856 45.556920322589576,202.9387319756206 45.556920322589576,202.74798870971426 46.19029761804268,201.34920333104674 46.075138109968975,201.41278453927953 46.075138109968975,201.34920333104674 46.19029761804268,201.22204089933075 46.247877372428775,200.96771597326733 46.708515405189246,200.64980969845783 46.65093565126881,200.20474069588818 46.30545712658204,200.0139967597206 46.36303688073531,199.8232527767541 45.67207983112894,199.3146019266569 45.49934056890197,199.06027637701482 45.441760814515874,199.06027637701482 45.441760814515874,199.25102054711897 45.096282289829105,199.25102054711897 45.096282289829105,199.44176467036596 44.750803764909506,199.3146019266569 44.290165731916204,198.4880435859668 44.34774548606947,198.61520646495046 44.05984671553597,198.55162502801977 44.00226696114987,198.67878789652605 43.5416289283894,198.29729922878323 43.5416289283894,198.42446213884978 43.311309911776334,198.36088068631943 43.138570649316534,197.78864738106495 42.965831386856735,197.97939186281292 42.793092124629766,197.53432133235037 43.02341114124283,197.9158103740774 42.67793261632323,197.9158103740774 42.27487433725037,197.59790285222698 42.3900338455569,197.8522288801032 41.814236304257065,197.1528321034275 41.7566565501038,196.7077610999113 41.41117802564986,196.26268984173657 41.353598271496594,195.94478164421162 41.468757779570296,195.56329163582996 41.2960185171105,195.3089648594614 41.41117802564986,194.80031105765374 41.353598271496594,194.60956579603953 41.41117802564986,194.4188204878592 41.1232792546507,194.4188204878592 41.23843876295723,194.48240226239432 41.06569950096309,194.29165692295646 40.77780072996393,194.22807513270527 40.54748171358369,194.03732973098522 40.31716269697063,193.5922569448012 40.14442343451083,193.7830024556606 40.14442343451083,194.10091153660323 39.97168417205103,193.8465842823498 39.62620564736426,193.9737479200121 38.877668843837455,193.5922569448012 38.76250933553092,193.33792952395743 38.58977007307112,193.2743476559408 38.47461056476459,193.02002013119636 38.532190318917856,192.9564382369863 38.30187130230479,192.89285633765394 38.359451056458056,193.02002013119636 38.24429154838435,192.7656925233896 38.071552285924554,192.82927443319932 37.78365351515822,192.44778289675014 37.49575474462472,192.57494676299393 37.49575474462472,192.38420095585752 37.61091425293125,192.51136483234586 37.553334498777986,192.38420095585752 37.43817499070428,192.25703705835622 37.66849400685169,192.19345510174753 37.207855973858386,191.81196325353812 36.97753695747815,191.49405323696556 36.919957203324884,191.2397251301445 36.747217940865085,191.1125610457384 36.63205843255855,190.7946507432498 36.51689892448485,190.66748658608412 36.574478678638116,190.54032240796369 36.229000153718516,190.47674031101633 35.82594187487848,189.90450120548485 35.595622858265415,189.90450120548485 35.134984825504944,189.65017257910222 35.19256457919255,189.71375474345405 34.962245563045144,189.71375474345405 34.616767038125545,189.45942605449818 34.73192654619925,189.2050972825382 34.73192654619925,189.0143506489694 34.444027775665745,188.8871862005908 34.444027775665745,188.82360396860167 34.444027775665745,188.8871862005908 34.271288513438776,188.69643948890734 33.810650480212644,188.56927498872392 33.637911217985675,188.82360396860167 33.23485293891281,188.3785281990422 33.119693430839106,188.50569273077417 33.06211367668584,188.2513636467047 32.77421490591951,187.7427052295534 32.77421490591951,187.48837589623872 32.94695416837931,187.17046411259798 32.94695416837931,186.53464015538339 33.35001244745217,186.47105773119256 33.17727318475954,185.89881567866541 33.292432693066075,185.64448574237758 33.810650480212644,185.58090324531076 33.810650480212644,185.45373823563568 34.04096949682571,185.1994081537705 34.38644802151248,185.1994081537705 34.271288513438776,184.8814954343834 34.38644802151248,184.6907477407367 34.67434679227881,184.8179128750926 34.271288513438776,184.8179128750926 34.789506300585344,185.1358256204403 34.67434679227881,185.1994081537705 34.444027775665745,185.1358256204403 34.38644802151248,184.8179128750926 34.84708605497144,185.0722430816968 34.789506300585344,185.1994081537705 34.67434679227881,185.1358256204403 34.90466580865905,185.2629906819202 34.962245563045144,185.1358256204403 34.616767038125545,185.32657320512226 34.73192654619925,185.45373823563568 34.444027775665745,185.58090324531076 34.444027775665745,185.32657320512226 34.15612900513224,185.1994081537705 34.271288513438776,185.3901557228528 34.21370875905268,185.32657320512226 34.38644802151248,185.1994081537705 34.32886826735921,185.2629906819202 34.38644802151248,185.45373823563568 34.444027775665745,185.2629906819202 34.50160753005184,185.3901557228528 34.38644802151248,185.3901557228528 34.50160753005184,185.58090324531076 34.444027775665745,185.51732074300526 34.55918728397228,185.51732074300526 34.55918728397228,185.32657320512226 34.73192654619925,185.1994081537705 34.55918728397228,185.1994081537705 34.55918728397228,185.2629906819202 34.73192654619925,185.0722430816968 34.55918728397228,184.8179128750926 34.32886826735921,184.8179128750926 34.55918728397228,184.8814954343834 34.271288513438776,184.8179128750926 34.84708605497144,185.0722430816968 34.444027775665745,184.8814954343834 34.271288513438776,184.5 34.38644802151248,184.8179128750926 34.32886826735921,184.7543303105631 34.38644802151248,184.94507798878476 34.55918728397228,184.8814954343834 34.616767038125545,185.00866053788923 34.55918728397228,185.1358256204403 34.38644802151248,185.00866053788923 34.444027775665745,184.6271651656134 34.271288513438776,184.6271651656134 34.38644802151248,184.6907477407367 34.32886826735921,184.6271651656134 34.271288513438776,184.7543303105631 34.444027775665745,184.56358258548426 34.50160753005184,184.6271651656134 34.38644802151248,184.56358258548426 34.271288513438776,184.8814954343834 34.09854925097898,184.8179128750926 34.09854925097898,185.32657320512226 34.21370875905268,185.32657320512226 34.04096949682571,184.8179128750926 34.09854925097898,185.32657320512226 34.09854925097898,185.1358256204403 34.21370875905268,185.1994081537705 33.86823023436591,185.2629906819202 34.21370875905268,185.1994081537705 34.04096949682571,185.32657320512226 33.983389742905274,185.2629906819202 33.983389742905274,185.32657320512226 34.21370875905268,185.2629906819202 33.86823023436591,185.32657320512226 33.810650480212644,185.1994081537705 33.92580998851918,185.1358256204403 34.04096949682571,185.1994081537705 34.09854925097898,185.0722430816968 34.04096949682571,185.1994081537705 34.09854925097898,185.1358256204403 33.86823023436591,185.1358256204403 33.92580998851918,185.32657320512226 33.86823023436591,185.1994081537705 33.75307072605938,185.51732074300526 33.465171955525875,185.77165072085336 33.23485293891281,185.83523320243694 33.52275170967914,186.59822257439373 33.17727318475954,186.78896980069112 33.119693430839106,186.9797169798985 33.00453392253257,187.55195823742542 33.119693430839106,187.7427052295534 33.75307072605938,188.2513636467047 34.21370875905268,188.3149459254928 34.444027775665745,188.44211046746932 35.250144333578646,189.39584386936622 35.65320261241868,189.26867948338622 35.99868113757111,189.45942605449818 37.380595236318186,190.98539694037754 37.84123326931149,191.9391272238572 38.93524859775789,193.02002013119636 39.56862589344382,193.2743476559408 40.08684368035756,193.6558387868572 40.37474245112389,193.71942062402377 41.1232792546507,194.03732973098522 41.468757779570296,194.48240226239432 41.468757779570296,194.99105627229437 41.7566565501038,196.38985308422707 41.87181605864316,196.7077610999113 43.02341114124283,197.59790285222698 43.1961504034698,197.53432133235037 44.00226696114987,198.04297334642615 44.290165731916204,198.04297334642615 44.6356442568358,198.42446213884978 45.441760814515874,198.80595074396115 45.84481909335591,198.80595074396115 46.420616634655744,199.3146019266569 46.881254667649046,200.3319032942527 46.881254667649046,200.5226471524802 45.84481909335591,201.98501517873956 45.556920322589576,202.8115698036272 45.61450007697567,203.25663731474197 45.49934056890197,203.5109614925459 45.556920322589576,204.08319058845518 45.67207983112894,204.2739335265942 45.556920322589576,205.10048571944935 45.67207983112894,205.99061786802486 46.13271786412224,206.62642592197517 46.708515405189246,207.7072984208353 46.99641417618841,208.02520181110594 47.11157368449494,208.53384696535068 47.11157368449494,208.97891120269196 46.65093565126881,209.67829734674888 46.01755835581571,209.67829734674888 45.269021552056074,209.9326194251189 44.98112278152257,210.18694142007735 44.750803764909506,210.82274604425766 44.578064502449706,210.88632647803752 44.462904994376004,211.39496976166265 44.6356442568358,211.77645200613188 44.52048474852927,212.22151438816218 44.00226696114987,212.7301567986142 43.88710745307617,212.9844778791885 44.05984671553597,212.9844778791885 44.34774548606947,212.66657651559217 44.40532524022274,212.7301567986142 44.80838351906277,212.66657651559217 45.441760814515874,212.7301567986142 46.075138109968975,211.6492912787362 46.01755835581571,211.84003236191347 46.30545712658204,211.71287164499518 46.247877372428775,211.9036127125146 46.075138109968975,211.9036127125146 46.01755835581571,212.03077339835 45.902398847509176,211.9036127125146 45.729659585049376,212.15793406334706 45.61450007697567,212.03077339835 45.78723933943547,212.15793406334706 45.556920322589576,212.15793406334706 45.729659585049376,212.09435373352608 45.67207983112894,212.15793406334706 45.729659585049376,212.09435373352608 45.78723933943547,212.22151438816218 45.84481909335591,211.96719305822626 45.84481909335591,212.34867502190173 45.21144179813564,213.1752186351223 45.38418106036261,213.68386042211205 46.19029761804268,214.70114299829584 47.11157368449494,215.5912641612813 48.14800925878808,216.35422434768407 49.011705570621416,216.86286405607825 49.990561390761286,217.5622431121883 49.529923357767984,218.2616215395974 50.163300653221086,218.89741956442595 50.508779177907854,219.4060576100601 50.39361966983415,219.66037650813814 49.702662620227784,220.23259372502798 49.990561390761286,220.67765126930317 50.04814114491455,220.80481052096002 49.24202458723448,221.18628815095872 48.89654606231488,221.69492470024852 48.378328275168315,222.01282237452688 47.57221171725541,223.03009405964985 47.16915343841538,223.09367349586682 46.82367491396144,223.2844117730856 46.59335589711554,223.6658881874755 46.93883442203514,223.6658881874755 47.226733192568645,223.9202056931099 47.053993930108845,224.1745231153909 46.708515405189246,224.1745231153909 46.881254667649046,224.30168179550674 47.34189270087518,224.36526112776482 47.57221171725541,224.42884045495884 48.723806800087914,225.12821270927088 51.37247548997402,227.03558838967 51.487634998047724,227.28990479395725 52.00585278542712,227.73495830077445 52.52407057257369,228.7522225038265 52.52407057257369,230.27811631467193 52.75438958895393,231.10464087908622 52.98470860556699,231.23179842642276 53.56050614686683,231.2953771922039 54.19388344231993,231.16821965540294 54.30904295062646,231.54969220393104 55.28789877076633,231.35895595303737 55.8061165579129,231.48611345887184 55.921276066219434,231.6132709439844 56.15159508259967,232.05832197784912 56.49707360751927,232.50337275722995 56.3243343452923,233.13915914332028 56.6122331158258,233.45705214125337 56.66981286974624,233.71136644651415 56.6122331158258,234.0292592108599 56.7849723782856,234.34715184522793 57.072871148819104,234.21999480715021 57.072871148819104,234.0292592108599 57.188030656892806,233.96568066830514 57.13045090273954,234.0292592108599 57.072871148819104,234.34715184522793 56.7849723782856,234.34715184522793 56.7849723782856,234.15641628036974 56.84255213220604,234.2835733287502 56.7849723782856,234.2835733287502 56.900131886359304,234.2835733287502 56.727392623899505,234.34715184522793 56.900131886359304,234.2835733287502 56.727392623899505,234.21999480715021 56.66981286974624,234.34715184522793 56.7849723782856,234.47430886281654 57.072871148819104,234.2835733287502 57.13045090273954,234.0292592108599 57.13045090273954,234.410730356758 56.66981286974624,234.410730356758 56.6122331158258,234.2835733287502 56.727392623899505,234.410730356758 56.66981286974624,234.21999480715021 56.7849723782856,234.2835733287502 56.7849723782856,234.15641628036974 56.66981286974624,234.21999480715021 56.7849723782856,234.2835733287502 56.727392623899505,234.15641628036974 56.6122331158258,234.2835733287502 56.66981286974624,234.21999480715021 56.49707360751927,234.15641628036974 56.727392623899505,234.2835733287502 56.554653361672536,234.2835733287502 56.6122331158258,234.53788736381102 56.900131886359304,234.91935826017288 56.49707360751927,235.11009363818448 56.900131886359304,236.0637698271894 56.900131886359304,237.01744484726805 57.13045090273954,237.8439622525475 57.13045090273954,238.47974427434383 57.76382819842547,239.17910389840836 58.166886477032676,239.4334163328749 58.45478524779901,239.87846289371373 58.91542328102514,240.19635313836625 59.14574229740538,240.70497725950554 59.37606131401844,240.9592891955399 59.37606131401844,241.15002309309784 59.203322051558644,241.08644513232866 59.26090180571191,241.2136010483373 59.43364106817171,241.2136010483373 59.72153983870521,240.9592891955399 61.448932462604716,242.1672697562026 61.794410987291485,242.54873691208195 62.02473000390455,242.67589258903172 63.63696311949752,242.42158121411921 64.96129746455699,242.67589258903172 67.60996615467593,242.1672697562026 70.31621459848247,240.8321332380874 71.00717164832167,240.9592891955399 71.81328820600174,240.9592891955399 69.91315631987527,241.02286716655362 69.79799681156874,241.53149074752582 69.33735877857544,241.84938031673664 69.45251828688197,241.53149074752582 73.94373910874128,248.65218597027706 75.09533419134095,250.7502355268225 74.63469615834765,249.92373183136806 74.92259492911398,250.3051951843081 75.21049369964749,251.13169847457903 75.49839247041382,251.51316123554716 74.46195689588785,252.3396632427466 74.51953665027395,252.59397137607448 74.51953665027395,252.21250914497068 75.26807345380075,256.72646689251997 75.38323296234012,258.0615761381341 75.61355197848752,259.1423771826667 75.49839247041382,259.6509889194858 75.84387099533342,260.7317877566675 75.78629124094732,261.1132458113716 76.36208878224716,262.8933809273294 76.47724829055369,262.95695710612927 76.59240779886022,263.4019902123837 76.76514706108719,263.5291424819734 75.95903050340712,262.8933809273294 75.90145074925385,263.02053327980684 76.01661025756039,262.1940426173969 75.78629124094732,262.4483475301531 75.55597222456709,262.384771309793 75.26807345380075,262.5754999553319 77.0530458316207,264.92781607358484 76.88030656962655,264.8006640326348 76.47724829055369,264.86424005572917 76.41966853663325,264.7370880045928 76.70756730716676,264.5463598888018 76.88030656962655,264.48278383986326 77.11062558600679,264.6099359325017 77.22578509408049,265.5" stroke="#4dd2ff" stroke-linecap="round" stroke-linejoin="round" stroke-width="0.5"><title>2023-04-29 4.6km</title></polyline></svg>