<?xml version="1.0" encoding="utf-8" ?>
<svg baseProfile="full" height="200mm" version="1.1" viewBox="0,0,200,200" width="200mm" xmlns="http://www.w3.org/2000/svg" xmlns:ev="http://www.w3.org/2001/xml-events" xmlns:xlink="http://www.w3.org/1999/xlink"><defs /><rect fill="#1a1a1a" height="200" width="200" x="0" y="0" /><text alignment-baseline="middle" fill="#e1ed5e" style="dominant-baseline: central; font-size:9.0px; font-family:Arial;" text-anchor="middle" x="100.0" y="100.0">2024</text><line stroke="#e1ed5e" stroke-width="0.3" x1="100.0" x2="100.0" y1="15.0" y2="10.0" /><path d="M 100.0 14.0 a86.0,86.0 0 0,1 42.35913384403234,11.155469271406648" fill="none" id="id13" stroke="none" /><text fill="#e1ed5e" style="font-size:6.75px; font-family:Arial;" text-anchor="middle"><textPath startOffset="22.145653131862478" xlink:href="#id13">January</textPath></text><line stroke="#e1ed5e" stroke-width="0.3" x1="143.13028292997686" x2="145.6673583964461" y1="26.7553504044142" y2="22.446841604673864" /><path d="M 143.63769802327073 25.89364864446614 a86.0,86.0 0 0,1 29.32050498858742,28.57503671076993" fill="none" id="id14" stroke="none" /><text fill="#e1ed5e" style="font-size:6.75px; font-family:Arial;" text-anchor="middle"><textPath startOffset="20.669276256404974" xlink:href="#id14">February</textPath></text><path d="M 114.39649973595853 84.71141617570332 l 42.296158660321176 -44.91705476914789 a82.69689495066744,82.69689495066744 0 0,0 1.0251560518649847,0.9820763077185799 l -43.06098719805148 44.184366331123734" fill="#4be4ff" stroke="none" /><path d="M 115.41159269507618 85.73525988315684 l 46.23477808522854 -42.794220350529464 a84.0,84.0 0 0,0 0.9704091966324899,1.066649697769313 l -46.96258498270291 41.99423307720248" fill="#4dd2ff" stroke="none" /><path d="M 116.35404254752997 86.82634096563983 l 27.929850860699883 -22.498310802974075 a56.86433546140452,56.86433546140452 0 0,0 0.6058314639036089,0.7654482636897324 l -28.31194875524505 22.015542595369666" fill="#edff19" stroke="none" /><line stroke="#e1ed5e" stroke-width="0.3" x1="172.87174338648825" x2="177.1583165268699" y1="56.24261187166439" y2="53.66864786411523" /><path d="M 173.72905801456457 55.72781907015455 a86.0,86.0 0 0,1 12.242430191666344,42.057860355516425" fill="none" id="id15" stroke="none" /><text fill="#e1ed5e" style="font-size:6.75px; font-family:Arial;" text-anchor="middle"><textPath startOffset="22.145653131862474" xlink:href="#id15">March</textPath></text><path d="M 118.53625476483649 90.13048839642627 l 33.96968607537335 -18.086944484958984 a59.484764944863606,59.484764944863606 0 0,0 0.4721728731062304,0.9054537425081666 l -34.27516701745453 17.501144499346317" fill="#bfff1e" stroke="none" /><line stroke="#e1ed5e" stroke-width="0.3" x1="184.99686870605535" x2="189.99668451229388" y1="99.2704041080226" y2="99.22748670261217" /><path d="M 185.99683186730306 99.26182062694052 a86.0,86.0 0 0,1 -10.086455211305974,41.156179273409016" fill="none" id="id16" stroke="none" /><text fill="#e1ed5e" style="font-size:6.75px; font-family:Arial;" text-anchor="middle"><textPath startOffset="21.40746469413373" xlink:href="#id16">April</textPath></text><path d="M 120.99922638620191 99.81974689727618 l 23.14119622797497 -0.19863933766504277 a44.142048752176436,44.142048752176436 0 0,0 0.0,0.7577848807777364 l -23.14119622797497 -0.19863933766503997" fill="#ff1001" stroke="none" /><path d="M 120.99922638620191 100.18025310272382 l 22.43126881242287 0.19254546463331457 a43.43209518282066,43.43209518282066 0 0,0 -0.012799166278668193,0.74548726926536 l -22.424658214545534 -0.5775796498677457" fill="#ff0000" stroke="none" /><path d="M 120.99303781780057 100.54070618675476 l 27.491172951962096 0.7080750973385439 a48.5002901915264,48.5002901915264 0 0,0 -0.028581251041140416,0.8321119391823653 l -27.47496701392411 -1.1798933010850199" fill="#ff6d0a" stroke="none" /><path d="M 120.96210409425399 101.26102812881392 l 33.52557836084306 2.0168155428331636 a54.58618688334301,54.58618688334301 0 0,0 -0.06429743040939681,0.9348705268063923 l -33.486016969268604 -2.5920294937938992" fill="#ffe615" stroke="none" /><path d="M 120.93736805541906 101.62068470465957 l 34.57055562216828 2.6759796446301536 a55.673969820081254,55.673969820081254 0 0,0 -0.08193717700828682,0.9522341984960022 l -34.51952482246225 -3.269034890501813" fill="#fffb17" stroke="none" /><path d="M 120.77682067341334 103.0534771498775 l 31.05469462619297 4.56397068290839 a52.388276262333136,52.388276262333136 0 0,0 -0.13840111411821246,0.8886344348991961 l -30.971772019936488 -5.096393299739036" fill="#ffbc11" stroke="none" /><path d="M 120.7213421655516 103.40968896794604 l 34.17478080118543 5.623447175805758 a55.63435867672664,55.63435867672664 0 0,0 -0.1631548634670813,0.9410338957603923 l -34.07321112022611 -6.209274104486739" fill="#fffa17" stroke="none" /><path d="M 120.65975698304385 103.76489593502545 l 41.52235448976528 7.566756170438311 a63.206181079512476,63.206181079512476 0 0,0 -0.20368555353980208,1.0657688854426293 l -41.386342643943316 -8.278427620914254" fill="#80ff26" stroke="none" /><line stroke="#e1ed5e" stroke-width="0.3" x1="174.33088141563837" x2="178.70328620479359" y1="141.23008692659167" y2="143.65538615756765" /><path d="M 175.20536237346943 141.71514677278685 a86.0,86.0 0 0,1 -30.301960400862466,31.631185727798858" fill="none" id="id17" stroke="none" /><text fill="#e1ed5e" style="font-size:6.75px; font-family:Arial;" text-anchor="middle"><textPath startOffset="22.145653131862474" xlink:href="#id17">May</textPath></text><line stroke="#e1ed5e" stroke-width="0.3" x1="143.1302829299769" x2="145.66735839644613" y1="173.24464959558577" y2="177.55315839532614" /><path d="M 143.63769802327073 174.10635135553383 a86.0,86.0 0 0,1 -40.68552437913181,11.842963189579606" fill="none" id="id18" stroke="none" /><text fill="#e1ed5e" style="font-size:6.75px; font-family:Arial;" text-anchor="middle"><textPath startOffset="21.407464694133747" xlink:href="#id18">June</textPath></text><line stroke="#e1ed5e" stroke-width="0.3" x1="101.45913802915013" x2="101.54496967792366" y1="184.9874750549273" y2="189.98673829345242" /><path d="M 101.47630435890484 185.9873277026323 a86.0,86.0 0 0,1 -42.54439059252881,-10.42667462771756" fill="none" id="id19" stroke="none" /><text fill="#e1ed5e" style="font-size:6.75px; font-family:Arial;" text-anchor="middle"><textPath startOffset="22.145653131862474" xlink:href="#id19">July</textPath></text><line stroke="#e1ed5e" stroke-width="0.3" x1="58.13341422392154" x2="55.67067388415222" y1="173.97424548756322" y2="178.32567169271397" /><path d="M 57.64086615596768 174.84453072859336 a86.0,86.0 0 0,1 -31.369924170532247,-30.572349798747897" fill="none" id="id20" stroke="none" /><text fill="#e1ed5e" style="font-size:6.75px; font-family:Arial;" text-anchor="middle"><textPath startOffset="22.145653131862474" xlink:href="#id20">August</textPath></text><line stroke="#e1ed5e" stroke-width="0.3" x1="26.387840678322732" x2="22.057713659400548" y1="142.50000000000003" y2="145.00000000000006" /><path d="M 25.521815274538298 143.00000000000003 a86.0,86.0 0 0,1 -11.493303480769221,-40.785679425670985" fill="none" id="id21" stroke="none" /><text fill="#e1ed5e" style="font-size:6.75px; font-family:Arial;" text-anchor="middle"><textPath startOffset="21.40746469413373" xlink:href="#id21">September</textPath></text><line stroke="#e1ed5e" stroke-width="0.3" x1="15.003131293944662" x2="10.003315487706104" y1="100.72959589197737" y2="100.7725132973878" /><path d="M 14.003168132696942 100.73817937305945 a86.0,86.0 0 0,1 10.791469493833604,-42.45332614584628" fill="none" id="id22" stroke="none" /><text fill="#e1ed5e" style="font-size:6.75px; font-family:Arial;" text-anchor="middle"><textPath startOffset="22.145653131862435" xlink:href="#id22">October</textPath></text><line stroke="#e1ed5e" stroke-width="0.3" x1="26.387840678322718" x2="22.05771365940052" y1="57.49999999999999" y2="54.99999999999999" /><path d="M 25.521815274538284 56.99999999999999 a86.0,86.0 0 0,1 29.574782752854787,-30.34633250058573" fill="none" id="id23" stroke="none" /><text fill="#e1ed5e" style="font-size:6.75px; font-family:Arial;" text-anchor="middle"><textPath startOffset="21.40746469413373" xlink:href="#id23">November</textPath></text><line stroke="#e1ed5e" stroke-width="0.3" x1="56.869717070023135" x2="54.33264160355391" y1="26.7553504044142" y2="22.446841604673864" /><path d="M 56.362301976729285 25.89364864446614 a86.0,86.0 0 0,1 42.16139366436587,-11.88097634709845" fill="none" id="id24" stroke="none" /><text fill="#e1ed5e" style="font-size:6.75px; font-family:Arial;" text-anchor="middle"><textPath startOffset="22.145653131862474" xlink:href="#id24">December</textPath></text></svg>