<?xml version="1.0" encoding="utf-8" ?>
<svg baseProfile="full" height="200mm" version="1.1" viewBox="0,0,200,200" width="200mm" xmlns="http://www.w3.org/2000/svg" xmlns:ev="http://www.w3.org/2001/xml-events" xmlns:xlink="http://www.w3.org/1999/xlink"><defs /><rect fill="#1a1a1a" height="200" width="200" x="0" y="0" /><text alignment-baseline="middle" fill="#e1ed5e" style="dominant-baseline: central; font-size:9.0px; font-family:Arial;" text-anchor="middle" x="100.0" y="100.0">2023</text><line stroke="#e1ed5e" stroke-width="0.3" x1="100.0" x2="100.0" y1="15.0" y2="10.0" /><path d="M 100.0 14.0 a86.0,86.0 0 0,1 42.46469731375804,11.215312516191453" fill="none" id="id1" stroke="none" /><text fill="#e1ed5e" style="font-size:6.75px; font-family:Arial;" text-anchor="middle"><textPath startOffset="22.20632615414155" xlink:href="#id1">January</textPath></text><line stroke="#e1ed5e" stroke-width="0.3" x1="143.23703022742887" x2="145.7803849466894" y1="26.81831364943548" y2="22.513508569990506" /><path d="M 143.74570117128098 25.957352633546492 a86.0,86.0 0 0,1 28.547481713284135,27.462654790039103" fill="none" id="id2" stroke="none" /><text fill="#e1ed5e" style="font-size:6.75px; font-family:Arial;" text-anchor="middle"><textPath startOffset="19.985693538727396" xlink:href="#id2">February</textPath></text><line stroke="#e1ed5e" stroke-width="0.3" x1="172.23445277983987" x2="176.4835382374775" y1="55.19839476539836" y2="52.563006222186495" /><path d="M 173.08426987136738 54.67131705675599 a86.0,86.0 0 0,1 12.851231095245387,41.99856678651699" fill="none" id="id3" stroke="none" /><text fill="#e1ed5e" style="font-size:6.75px; font-family:Arial;" text-anchor="middle"><textPath startOffset="22.20632615414155" xlink:href="#id3">March</textPath></text><line stroke="#e1ed5e" stroke-width="0.3" x1="184.98032266829074" x2="189.97916517819016" y1="98.17113171792111" y2="98.06355123074" /><path d="M 185.9800911702706 98.14961562048488 a86.0,86.0 0 0,1 -9.607161424134198,41.387399972396054" fill="none" id="id4" stroke="none" /><text fill="#e1ed5e" style="font-size:6.75px; font-family:Arial;" text-anchor="middle"><textPath startOffset="21.466115282336823" xlink:href="#id4">April</textPath></text><path d="M 118.81262510543309 109.33194174019688 l 20.6767072723883 10.25661366043528 a44.08082206957678,44.08082206957678 0 0,0 -0.34303555140595365,0.6768416867151408 l -20.497093051196078 -10.611009558853114" fill="#fffc17" stroke="none" /><line stroke="#e1ed5e" stroke-width="0.3" x1="174.80103733775053" x2="179.2010983576182" y1="140.37084112569926" y2="142.7455964860345" /><path d="M 175.68104954172406 140.8457921977663 a86.0,86.0 0 0,1 -30.038265399797805,32.042727171017184" fill="none" id="id5" stroke="none" /><text fill="#e1ed5e" style="font-size:6.75px; font-family:Arial;" text-anchor="middle"><textPath startOffset="22.206326154141568" xlink:href="#id5">May</textPath></text><path d="M 118.48025628344425 109.97397251340804 l 55.44076885033275 29.921917540224147 a84.0,84.0 0 0,0 -0.6976943621939617,1.2665179264087798 l -54.91749807868728 -30.871805985030733" fill="#4dd2ff" stroke="none" /><path d="M 117.55443506779139 111.5257021239791 l 24.54500775499921 16.115497133481426 a50.362674495900734,50.362674495900734 0 0,0 -0.48203529413746316,0.7205773613279449 l -24.263969355451028 -16.53561140901518" fill="#b2ff20" stroke="none" /><path d="M 115.80600337817218 113.82643327865902 l 25.811902481029836 22.579176969053837 a55.293928650565036,55.293928650565036 0 0,0 -0.632828877111405,0.7109899520075292 l -25.419414754270093 -23.020141090802234" fill="#78ff26" stroke="none" /><line stroke="#e1ed5e" stroke-width="0.3" x1="143.8653032363475" x2="146.44561519142675" y1="172.8068346515853" y2="177.08958963109032" /><path d="M 144.38136562736335 173.6633856474863 a86.0,86.0 0 0,1 -40.68145358897372,12.25698825130547" fill="none" id="id6" stroke="none" /><text fill="#e1ed5e" style="font-size:6.75px; font-family:Arial;" text-anchor="middle"><textPath startOffset="21.466115282336833" xlink:href="#id6">June</textPath></text><line stroke="#e1ed5e" stroke-width="0.3" x1="102.19456741930631" x2="102.32365962044197" y1="184.97166512339345" y2="189.96999836594603" /><path d="M 102.22038585953345 185.97133177190398 a86.0,86.0 0 0,1 -42.740103519485714,-10.115201625700543" fill="none" id="id7" stroke="none" /><text fill="#e1ed5e" style="font-size:6.75px; font-family:Arial;" text-anchor="middle"><textPath startOffset="22.20632615414155" xlink:href="#id7">July</textPath></text><path d="M 99.45781275523022 120.99299961872073 l -0.1778657690852337 6.886801669735442 a27.889098160868603,27.889098160868603 0 0,0 -0.47979826550809374,-0.016525222387149766 l 0.2963843862679705 -6.882719648922199" fill="#ff1302" stroke="none" /><path d="M 98.01472825383883 120.90594882070398 l -0.7066061699166304 7.440932181317323 a28.474407267892754,28.474407267892754 0 0,0 -0.48754612783385803,-0.050536149605820924 l 0.8345848943560817 -7.427666663255741" fill="#ff1c02" stroke="none" /><path d="M 96.58105272829116 120.7198165907248 l -1.202356666514746 7.286631710575949 a28.385165078661643,28.385165078661643 0 0,0 -0.48140027322385687,-0.08369760812317259 l 1.3276059112106529 -7.264855523931771" fill="#ff1b02" stroke="none" /><path d="M 94.11515582081647 120.15858648285463 l -1.5908974233570388 5.449633383248372 a26.67709949036118,26.67709949036118 0 0,0 -0.43969579728387465,-0.13247673684200723 l 1.6844681950811593 -5.421441277300639" fill="#ff0000" stroke="none" /><path d="M 92.06813273071674 119.44442032107085 l -2.749325649667679 6.739780396813198 a28.278971859073785,28.278971859073785 0 0,0 -0.44913543862234356,-0.18773864977010288 l 2.8649325477874847 -6.691456704023122" fill="#ff1902" stroke="none" /><line stroke="#e1ed5e" stroke-width="0.3" x1="58.666819895761336" x2="56.23545636021788" y1="174.27360380694188" y2="178.64263932499728" /><path d="M 58.180547188652646 175.14741091055294 a86.0,86.0 0 0,1 -31.652253787137756,-30.449443065178592" fill="none" id="id8" stroke="none" /><text fill="#e1ed5e" style="font-size:6.75px; font-family:Arial;" text-anchor="middle"><textPath startOffset="22.20632615414155" xlink:href="#id8">August</textPath></text><path d="M 86.51685102203217 116.09983520530335 l -3.8108216402466004 4.550391047746266 a26.935353423443388,26.935353423443388 0 0,0 -0.35289741082798304,-0.30074682945343806 l 3.88858452765164 -4.484119828069876" fill="#ff0400" stroke="none" /><path d="M 85.18274418774928 114.88116024355367 l -4.225879856744833 4.244105394079251 a26.98919787281188,26.98919787281188 0 0,0 -0.32638856295389695,-0.3306298910770324 l 4.298309044754263 -4.170735009021555" fill="#ff0500" stroke="none" /><line stroke="#e1ed5e" stroke-width="0.3" x1="26.63291911575756" x2="22.317208475507996" y1="142.92168965132927" y2="145.44649492493687" /><path d="M 25.769776987707644 143.4266507060508 a86.0,86.0 0 0,1 -11.730757126820373,-40.83630448921669" fill="none" id="id9" stroke="none" /><text fill="#e1ed5e" style="font-size:6.75px; font-family:Arial;" text-anchor="middle"><textPath startOffset="21.46611528233685" xlink:href="#id9">September</textPath></text><line stroke="#e1ed5e" stroke-width="0.3" x1="15.007084014347285" x2="10.007500721073583" y1="101.09737516637583" y2="101.16192664675087" /><path d="M 14.007167355692545 101.11028546245083 a86.0,86.0 0 0,1 10.666146001902534,-42.60595125391555" fill="none" id="id10" stroke="none" /><text fill="#e1ed5e" style="font-size:6.75px; font-family:Arial;" text-anchor="middle"><textPath startOffset="22.20632615414155" xlink:href="#id10">October</textPath></text><path d="M 81.26839172434947 90.50648371742162 l -22.43497133435851 -11.370447349081934 a46.15183913139818,46.15183913139818 0 0,0 0.3652381098071569,-0.7055237751919847 l 22.23592379139124 11.754943846534253" fill="#e7ff1a" stroke="none" /><line stroke="#e1ed5e" stroke-width="0.3" x1="26.266209847984243" x2="21.928928074336255" y1="57.711370442889674" y2="55.22380399835377" /><path d="M 25.398753493254645 57.213857153982495 a86.0,86.0 0 0,1 29.58750427330803,-30.492523968695096" fill="none" id="id11" stroke="none" /><text fill="#e1ed5e" style="font-size:6.75px; font-family:Arial;" text-anchor="middle"><textPath startOffset="21.46611528233685" xlink:href="#id11">November</textPath></text><path d="M 81.78341655067845 89.55222093294921 l -4.978263399824481 -2.855189409344946 a26.73892089519167,26.73892089519167 0 0,0 0.23242530116764365,-0.3972901814638336 l 4.928378424186513 2.9404590031626716" fill="#ff0100" stroke="none" /><path d="M 82.54541684631803 88.32363383020206 l -16.76738940237964 -11.216663076395193 a41.17322180367827,41.17322180367827 0 0,0 0.39913622042015584,-0.5856831526438281 l 16.571828716290742 11.503624252309436" fill="#ffd513" stroke="none" /><path d="M 83.39014120810768 87.1503855733568 l -11.519274358886038 -8.911468534497988 a35.56392643474407,35.56392643474407 0 0,0 0.37874890596127214,-0.4809726480172184 l 11.364171372330796 9.108433576468254" fill="#ff870c" stroke="none" /><path d="M 83.84228863543731 86.58626213691792 l -20.09446247636792 -16.681932612603863 a47.116552182583646,47.116552182583646 0 0,0 0.5234186453941351,-0.6195625814072961 l 19.804333217486658 17.025354143640275" fill="#dbff1b" stroke="none" /><line stroke="#e1ed5e" stroke-width="0.3" x1="56.762969772571076" x2="54.21961505331055" y1="26.818313649435495" y2="22.513508569990535" /><path d="M 56.25429882871897 25.957352633546506 a86.0,86.0 0 0,1 42.265352541879196,-11.944610805530505" fill="none" id="id12" stroke="none" /><text fill="#e1ed5e" style="font-size:6.75px; font-family:Arial;" text-anchor="middle"><textPath startOffset="22.20632615414155" xlink:href="#id12">December</textPath></text></svg>